<?xml version="1.0" encoding="us-ascii" standalone="no"?><svg xmlns="http://www.w3.org/2000/svg" xmlns:xlink="http://www.w3.org/1999/xlink" contentStyleType="text/css" height="476px" preserveAspectRatio="none" style="width:1196px;height:476px;background:#FFFFFF;" version="1.1" viewBox="0 0 1196 476" width="1196.8px" zoomAndPan="magnify"><defs/><g><text fill="#000000" font-family="sans-serif" font-size="11.2" font-weight="bold" lengthAdjust="spacing" textLength="274.4" x="460.4" y="24.0859">Get a list of employees with a given function/role</text><rect fill="#FFFFFF" height="296.425" style="stroke:#181818;stroke-width:0.8000000000000002;" width="8" x="35.6" y="106.5938"/><rect fill="#FFFFFF" height="270.5922" style="stroke:#181818;stroke-width:0.8000000000000002;" width="8" x="213.2" y="125.2266"/><rect fill="#FFFFFF" height="237.5594" style="stroke:#181818;stroke-width:0.8000000000000002;" width="8" x="386" y="158.2594"/><rect fill="#FFFFFF" height="60.4656" style="stroke:#181818;stroke-width:0.8000000000000002;" width="8" x="534.8" y="185.1563"/><rect fill="#FFFFFF" height="75.0984" style="stroke:#181818;stroke-width:0.8000000000000002;" width="8" x="680.4" y="270.6547"/><rect fill="#FFFFFF" height="107.3313" style="stroke:#181818;stroke-width:0.8000000000000002;" width="8" x="924.8" y="295.6875"/><line style="stroke:#181818;stroke-width:0.4000000000000001;stroke-dasharray:5.0,5.0;" x1="39.2" x2="39.2" y1="98.5938" y2="410.2188"/><line style="stroke:#181818;stroke-width:0.4000000000000001;stroke-dasharray:5.0,5.0;" x1="217.2" x2="217.2" y1="98.5938" y2="410.2188"/><line style="stroke:#181818;stroke-width:0.4000000000000001;stroke-dasharray:5.0,5.0;" x1="390" x2="390" y1="157.075" y2="410.2188"/><line style="stroke:#181818;stroke-width:0.4000000000000001;stroke-dasharray:5.0,5.0;" x1="538.4" x2="538.4" y1="98.5938" y2="410.2188"/><line style="stroke:#181818;stroke-width:0.4000000000000001;stroke-dasharray:5.0,5.0;" x1="684" x2="684" y1="98.5938" y2="410.2188"/><line style="stroke:#181818;stroke-width:0.4000000000000001;stroke-dasharray:5.0,5.0;" x1="928.8" x2="928.8" y1="98.5938" y2="410.2188"/><line style="stroke:#181818;stroke-width:0.4000000000000001;stroke-dasharray:5.0,5.0;" x1="1132" x2="1132" y1="98.5938" y2="410.2188"/><text fill="#000000" font-family="sans-serif" font-size="11.2" lengthAdjust="spacing" textLength="66.4" x="4" y="95.7828">Administrator</text><ellipse cx="39.6" cy="42.4969" fill="#E3E3E3" rx="6.4" ry="6.4" style="stroke:#181818;stroke-width:0.4000000000000001;"/><path d="M39.6,48.8969 L39.6,70.4969 M29.2,55.2969 L50,55.2969 M39.6,70.4969 L29.2,82.4969 M39.6,70.4969 L50,82.4969 " fill="none" style="stroke:#181818;stroke-width:0.4000000000000001;"/><text fill="#000000" font-family="sans-serif" font-size="11.2" lengthAdjust="spacing" textLength="66.4" x="4" y="421.5047">Administrator</text><ellipse cx="39.6" cy="431.1156" fill="#E3E3E3" rx="6.4" ry="6.4" style="stroke:#181818;stroke-width:0.4000000000000001;"/><path d="M39.6,437.5156 L39.6,459.1156 M29.2,443.9156 L50,443.9156 M39.6,459.1156 L29.2,471.1156 M39.6,459.1156 L50,471.1156 " fill="none" style="stroke:#181818;stroke-width:0.4000000000000001;"/><rect fill="#E3E3E3" height="26.0969" rx="2" ry="2" style="stroke:#181818;stroke-width:0.4000000000000001;" width="73.6" x="180.4" y="71.6969"/><text fill="#000000" font-family="sans-serif" font-size="11.2" lengthAdjust="spacing" textLength="62.4" x="186" y="89.3828">:EmployeeUI</text><rect fill="#E3E3E3" height="26.0969" rx="2" ry="2" style="stroke:#181818;stroke-width:0.4000000000000001;" width="73.6" x="180.4" y="409.4188"/><text fill="#000000" font-family="sans-serif" font-size="11.2" lengthAdjust="spacing" textLength="62.4" x="186" y="427.1047">:EmployeeUI</text><rect fill="#E3E3E3" height="26.0969" rx="2" ry="2" style="stroke:#181818;stroke-width:0.4000000000000001;" width="131.2" x="324.4" y="409.4188"/><text fill="#000000" font-family="sans-serif" font-size="11.2" lengthAdjust="spacing" textLength="120" x="330" y="427.1047">:EmployeeListController</text><rect fill="#E3E3E3" height="26.0969" rx="2" ry="2" style="stroke:#181818;stroke-width:0.4000000000000001;" width="74.4" x="501.6" y="71.6969"/><text fill="#000000" font-family="sans-serif" font-size="11.2" lengthAdjust="spacing" textLength="63.2" x="507.2" y="89.3828">Repositories</text><rect fill="#E3E3E3" height="26.0969" rx="2" ry="2" style="stroke:#181818;stroke-width:0.4000000000000001;" width="74.4" x="501.6" y="409.4188"/><text fill="#000000" font-family="sans-serif" font-size="11.2" lengthAdjust="spacing" textLength="63.2" x="507.2" y="427.1047">Repositories</text><rect fill="#E3E3E3" height="26.0969" rx="2" ry="2" style="stroke:#181818;stroke-width:0.4000000000000001;" width="200.8" x="584" y="71.6969"/><text fill="#000000" font-family="sans-serif" font-size="11.2" lengthAdjust="spacing" textLength="189.6" x="589.6" y="89.3828">employeeRepo : EmployeeRepository</text><rect fill="#E3E3E3" height="26.0969" rx="2" ry="2" style="stroke:#181818;stroke-width:0.4000000000000001;" width="200.8" x="584" y="409.4188"/><text fill="#000000" font-family="sans-serif" font-size="11.2" lengthAdjust="spacing" textLength="189.6" x="589.6" y="427.1047">employeeRepo : EmployeeRepository</text><rect fill="#E3E3E3" height="26.0969" rx="2" ry="2" style="stroke:#181818;stroke-width:0.4000000000000001;" width="272" x="792.8" y="71.6969"/><text fill="#000000" font-family="sans-serif" font-size="11.2" lengthAdjust="spacing" textLength="260.8" x="798.4" y="89.3828">ListOfEmployeesRepo : ListOfEmployeesRepository</text><rect fill="#E3E3E3" height="26.0969" rx="2" ry="2" style="stroke:#181818;stroke-width:0.4000000000000001;" width="272" x="792.8" y="409.4188"/><text fill="#000000" font-family="sans-serif" font-size="11.2" lengthAdjust="spacing" textLength="260.8" x="798.4" y="427.1047">ListOfEmployeesRepo : ListOfEmployeesRepository</text><rect fill="#E3E3E3" height="26.0969" rx="2" ry="2" style="stroke:#181818;stroke-width:0.4000000000000001;" width="119.2" x="1072.8" y="71.6969"/><text fill="#000000" font-family="sans-serif" font-size="11.2" lengthAdjust="spacing" textLength="108" x="1078.4" y="89.3828">listOfEmployeesRepo</text><rect fill="#E3E3E3" height="26.0969" rx="2" ry="2" style="stroke:#181818;stroke-width:0.4000000000000001;" width="119.2" x="1072.8" y="409.4188"/><text fill="#000000" font-family="sans-serif" font-size="11.2" lengthAdjust="spacing" textLength="108" x="1078.4" y="427.1047">listOfEmployeesRepo</text><rect fill="#FFFFFF" height="296.425" style="stroke:#181818;stroke-width:0.8000000000000002;" width="8" x="35.6" y="106.5938"/><rect fill="#FFFFFF" height="270.5922" style="stroke:#181818;stroke-width:0.8000000000000002;" width="8" x="213.2" y="125.2266"/><rect fill="#FFFFFF" height="237.5594" style="stroke:#181818;stroke-width:0.8000000000000002;" width="8" x="386" y="158.2594"/><rect fill="#FFFFFF" height="60.4656" style="stroke:#181818;stroke-width:0.8000000000000002;" width="8" x="534.8" y="185.1563"/><rect fill="#FFFFFF" height="75.0984" style="stroke:#181818;stroke-width:0.8000000000000002;" width="8" x="680.4" y="270.6547"/><rect fill="#FFFFFF" height="107.3313" style="stroke:#181818;stroke-width:0.8000000000000002;" width="8" x="924.8" y="295.6875"/><polygon fill="#181818" points="203.6,122.0266,211.6,125.2266,203.6,128.4266,206.8,125.2266" style="stroke:#181818;stroke-width:0.8000000000000002;"/><line style="stroke:#181818;stroke-width:0.8000000000000002;" x1="43.6" x2="208.4" y1="125.2266" y2="125.2266"/><text fill="#000000" font-family="sans-serif" font-size="10.4" font-weight="bold" lengthAdjust="spacing" textLength="5.6" x="49.2" y="121.0164">1</text><text fill="#000000" font-family="sans-serif" font-size="10.4" lengthAdjust="spacing" textLength="40" x="58" y="121.0164">requests</text><polygon fill="#181818" points="314.8,147.0594,322.8,150.2594,314.8,153.4594,318,150.2594" style="stroke:#181818;stroke-width:0.8000000000000002;"/><line style="stroke:#181818;stroke-width:0.8000000000000002;" x1="221.2" x2="319.6" y1="150.2594" y2="150.2594"/><text fill="#000000" font-family="sans-serif" font-size="10.4" font-weight="bold" lengthAdjust="spacing" textLength="5.6" x="226.8" y="146.0492">2</text><text fill="#000000" font-family="sans-serif" font-size="10.4" lengthAdjust="spacing" textLength="75.2" x="235.6" y="146.0492">initiateRequest()</text><rect fill="#E3E3E3" height="26.0969" rx="2" ry="2" style="stroke:#181818;stroke-width:0.4000000000000001;" width="131.2" x="324.4" y="131.6266"/><text fill="#000000" font-family="sans-serif" font-size="11.2" lengthAdjust="spacing" textLength="120" x="330" y="149.3125">:EmployeeListController</text><polygon fill="#181818" points="525.2,181.9563,533.2,185.1563,525.2,188.3563,528.4,185.1563" style="stroke:#181818;stroke-width:0.8000000000000002;"/><line style="stroke:#181818;stroke-width:0.8000000000000002;" x1="394" x2="530" y1="185.1563" y2="185.1563"/><text fill="#000000" font-family="sans-serif" font-size="10.4" font-weight="bold" lengthAdjust="spacing" textLength="5.6" x="399.6" y="180.9461">3</text><text fill="#000000" font-family="sans-serif" font-size="10.4" lengthAdjust="spacing" textLength="116.8" x="408.4" y="180.9461">getEmployeeRepository()</text><line style="stroke:#181818;stroke-width:0.8000000000000002;" x1="542.8" x2="576.4" y1="210.1891" y2="210.1891"/><line style="stroke:#181818;stroke-width:0.8000000000000002;" x1="576.4" x2="576.4" y1="210.1891" y2="220.5891"/><line style="stroke:#181818;stroke-width:0.8000000000000002;" x1="543.6" x2="576.4" y1="220.5891" y2="220.5891"/><polygon fill="#181818" points="551.6,217.3891,543.6,220.5891,551.6,223.7891,548.4,220.5891" style="stroke:#181818;stroke-width:0.8000000000000002;"/><text fill="#000000" font-family="sans-serif" font-size="10.4" font-weight="bold" lengthAdjust="spacing" textLength="5.6" x="548.4" y="205.9789">4</text><text fill="#000000" font-family="sans-serif" font-size="10.4" lengthAdjust="spacing" textLength="102.4" x="557.2" y="205.9789">EmployeeRepository()</text><polygon fill="#181818" points="402.8,242.4219,394.8,245.6219,402.8,248.8219,399.6,245.6219" style="stroke:#181818;stroke-width:0.8000000000000002;"/><line style="stroke:#181818;stroke-width:0.8000000000000002;stroke-dasharray:2.0,2.0;" x1="398" x2="538" y1="245.6219" y2="245.6219"/><text fill="#000000" font-family="sans-serif" font-size="10.4" font-weight="bold" lengthAdjust="spacing" textLength="5.6" x="407.6" y="241.4117">5</text><text fill="#000000" font-family="sans-serif" font-size="10.4" lengthAdjust="spacing" textLength="68.8" x="416.4" y="241.4117">employeeRepo</text><polygon fill="#181818" points="670.8,267.4547,678.8,270.6547,670.8,273.8547,674,270.6547" style="stroke:#181818;stroke-width:0.8000000000000002;"/><line style="stroke:#181818;stroke-width:0.8000000000000002;" x1="394" x2="675.6" y1="270.6547" y2="270.6547"/><text fill="#000000" font-family="sans-serif" font-size="10.4" font-weight="bold" lengthAdjust="spacing" textLength="5.6" x="399.6" y="266.4445">6</text><text fill="#000000" font-family="sans-serif" font-size="10.4" lengthAdjust="spacing" textLength="102.4" x="408.4" y="266.4445">retrieveEmployeeList()</text><polygon fill="#181818" points="915.2,292.4875,923.2,295.6875,915.2,298.8875,918.4,295.6875" style="stroke:#181818;stroke-width:0.8000000000000002;"/><line style="stroke:#181818;stroke-width:0.8000000000000002;" x1="688.4" x2="920" y1="295.6875" y2="295.6875"/><text fill="#000000" font-family="sans-serif" font-size="10.4" font-weight="bold" lengthAdjust="spacing" textLength="5.6" x="694" y="291.4773">7</text><text fill="#000000" font-family="sans-serif" font-size="10.4" lengthAdjust="spacing" textLength="178.4" x="702.8" y="291.4773">retrieveEmployeesWithGivenFunction()</text><polygon fill="#181818" points="697.2,317.5203,689.2,320.7203,697.2,323.9203,694,320.7203" style="stroke:#181818;stroke-width:0.8000000000000002;"/><line style="stroke:#181818;stroke-width:0.8000000000000002;stroke-dasharray:2.0,2.0;" x1="692.4" x2="1131.6" y1="320.7203" y2="320.7203"/><text fill="#000000" font-family="sans-serif" font-size="10.4" font-weight="bold" lengthAdjust="spacing" textLength="5.6" x="702" y="316.5102">8</text><text fill="#000000" font-family="sans-serif" font-size="10.4" lengthAdjust="spacing" textLength="50.4" x="710.8" y="316.5102">employees</text><polygon fill="#181818" points="402.8,342.5531,394.8,345.7531,402.8,348.9531,399.6,345.7531" style="stroke:#181818;stroke-width:0.8000000000000002;"/><line style="stroke:#181818;stroke-width:0.8000000000000002;stroke-dasharray:2.0,2.0;" x1="398" x2="683.6" y1="345.7531" y2="345.7531"/><text fill="#000000" font-family="sans-serif" font-size="10.4" font-weight="bold" lengthAdjust="spacing" textLength="5.6" x="407.6" y="341.543">9</text><text fill="#000000" font-family="sans-serif" font-size="10.4" lengthAdjust="spacing" textLength="61.6" x="416.4" y="341.543">employeeList</text><polygon fill="#181818" points="230,367.5859,222,370.7859,230,373.9859,226.8,370.7859" style="stroke:#181818;stroke-width:0.8000000000000002;"/><line style="stroke:#181818;stroke-width:0.8000000000000002;stroke-dasharray:2.0,2.0;" x1="225.2" x2="385.2" y1="370.7859" y2="370.7859"/><text fill="#000000" font-family="sans-serif" font-size="10.4" font-weight="bold" lengthAdjust="spacing" textLength="11.2" x="234.8" y="366.5758">10</text><text fill="#000000" font-family="sans-serif" font-size="10.4" lengthAdjust="spacing" textLength="61.6" x="249.2" y="366.5758">employeeList</text><polygon fill="#181818" points="52.4,392.6188,44.4,395.8188,52.4,399.0188,49.2,395.8188" style="stroke:#181818;stroke-width:0.8000000000000002;"/><line style="stroke:#181818;stroke-width:0.8000000000000002;" x1="47.6" x2="216.4" y1="395.8188" y2="395.8188"/><text fill="#000000" font-family="sans-serif" font-size="10.4" font-weight="bold" lengthAdjust="spacing" textLength="11.2" x="57.2" y="391.6086">11</text><text fill="#000000" font-family="sans-serif" font-size="10.4" lengthAdjust="spacing" textLength="136" x="71.6" y="391.6086">shows retrieved employee list</text><!--SRC=[XLJ1QiCm3BtxAyHEMw7idaDXZAuC1eEEiRENAAcfOsUsqjA_dv8cmKvZgbDYFxqdlKZnHsKQwMGDjJKsFpXR8v1hKVZfff7vKLRuHHUDu30dQIeT0ln15lQiJ0Mbr1w584KCtI611AqyWIq1wqRR2wA7iw83NrJgX0RArkIah7bsbZc5RCcQjlv5nyyvMGSlHQqCSpZ9Ru85IUMgaORW8TiEdD_l3o0zj2fn_y7vhzOGQsXqFJOdfoFq7Xlh5Miez37DM7c7W0osmMkVSEa9GrIStwb_bcEQ7sWMJWEsXLlHEw9Ead1cYW2Ew0ZM6tQ3LHp-jUZ9zv0fdOs28HZ5sCwDrOhnJ46A8VjhtkFJ19oIU-SWYEwW8maTPAeAwTQgW30YZTo7MKJ4jq9tLUOSw_MchpcBFre8B_1-QMFVi_bmI0mzOJXygRQJ-br4lAopF4TpEV_3wxNhTkjjMAsK-DACpMlG2vhhsvwdvKwPgEzenRqE4naGTxMck9CcNZ_Gk0f9gkiAnFkJyK_DdltaRZ6bzws8XJAclGZEUD7-0G00]--></g></svg>