<?xml version="1.0" encoding="us-ascii" standalone="no"?><svg xmlns="http://www.w3.org/2000/svg" xmlns:xlink="http://www.w3.org/1999/xlink" contentStyleType="text/css" height="479px" preserveAspectRatio="none" style="width:573px;height:479px;background:#FFFFFF;" version="1.1" viewBox="0 0 573 479" width="573px" zoomAndPan="magnify"><defs><filter height="300%" id="f8tzo0ozsz07n" width="300%" x="-1" y="-1"><feGaussianBlur result="blurOut" stdDeviation="2.0"/><feColorMatrix in="blurOut" result="blurOut2" type="matrix" values="0 0 0 0 0 0 0 0 0 0 0 0 0 0 0 0 0 0 .4 0"/><feOffset dx="4.0" dy="4.0" in="blurOut2" result="blurOut3"/><feBlend in="SourceGraphic" in2="blurOut3" mode="normal"/></filter></defs><g><text fill="#000000" font-family="sans-serif" font-size="14" font-weight="bold" lengthAdjust="spacing" textLength="228" x="170" y="30.1074">System Sequence Diagram (SSD)</text><rect fill="#FFFFFF" filter="url(#f8tzo0ozsz07n)" height="242.3281" style="stroke:#181818;stroke-width:1.0;" width="10" x="44.5" y="136.2422"/><rect fill="#FFFFFF" filter="url(#f8tzo0ozsz07n)" height="31.291" style="stroke:#181818;stroke-width:1.0;" width="10" x="525.5" y="159.5332"/><rect fill="#FFFFFF" filter="url(#f8tzo0ozsz07n)" height="31.291" style="stroke:#181818;stroke-width:1.0;" width="10" x="525.5" y="222.1152"/><rect fill="#FFFFFF" filter="url(#f8tzo0ozsz07n)" height="31.291" style="stroke:#181818;stroke-width:1.0;" width="10" x="525.5" y="284.6973"/><rect fill="#FFFFFF" filter="url(#f8tzo0ozsz07n)" height="31.291" style="stroke:#181818;stroke-width:1.0;" width="10" x="525.5" y="347.2793"/><line style="stroke:#181818;stroke-width:0.5;stroke-dasharray:5.0,5.0;" x1="49" x2="49" y1="126.2422" y2="396.5703"/><line style="stroke:#181818;stroke-width:0.5;stroke-dasharray:5.0,5.0;" x1="530" x2="530" y1="126.2422" y2="396.5703"/><text fill="#000000" font-family="sans-serif" font-size="14" lengthAdjust="spacing" textLength="83" x="5" y="122.7285">Administrator</text><ellipse cx="49.5" cy="53.1211" fill="#E3E3E3" filter="url(#f8tzo0ozsz07n)" rx="8" ry="8" style="stroke:#181818;stroke-width:0.5;"/><path d="M49.5,61.1211 L49.5,88.1211 M36.5,69.1211 L62.5,69.1211 M49.5,88.1211 L36.5,103.1211 M49.5,88.1211 L62.5,103.1211 " fill="none" filter="url(#f8tzo0ozsz07n)" style="stroke:#181818;stroke-width:0.5;"/><text fill="#000000" font-family="sans-serif" font-size="14" lengthAdjust="spacing" textLength="83" x="5" y="410.6777">Administrator</text><ellipse cx="49.5" cy="422.6914" fill="#E3E3E3" filter="url(#f8tzo0ozsz07n)" rx="8" ry="8" style="stroke:#181818;stroke-width:0.5;"/><path d="M49.5,430.6914 L49.5,457.6914 M36.5,438.6914 L62.5,438.6914 M49.5,457.6914 L36.5,472.6914 M49.5,457.6914 L62.5,472.6914 " fill="none" filter="url(#f8tzo0ozsz07n)" style="stroke:#181818;stroke-width:0.5;"/><rect fill="#E3E3E3" filter="url(#f8tzo0ozsz07n)" height="32.6211" rx="2.5" ry="2.5" style="stroke:#181818;stroke-width:0.5;" width="64" x="497" y="89.6211"/><text fill="#000000" font-family="sans-serif" font-size="14" lengthAdjust="spacing" textLength="50" x="504" y="111.7285">:System</text><rect fill="#E3E3E3" filter="url(#f8tzo0ozsz07n)" height="32.6211" rx="2.5" ry="2.5" style="stroke:#181818;stroke-width:0.5;" width="64" x="497" y="395.5703"/><text fill="#000000" font-family="sans-serif" font-size="14" lengthAdjust="spacing" textLength="50" x="504" y="417.6777">:System</text><rect fill="#FFFFFF" filter="url(#f8tzo0ozsz07n)" height="242.3281" style="stroke:#181818;stroke-width:1.0;" width="10" x="44.5" y="136.2422"/><rect fill="#FFFFFF" filter="url(#f8tzo0ozsz07n)" height="31.291" style="stroke:#181818;stroke-width:1.0;" width="10" x="525.5" y="159.5332"/><rect fill="#FFFFFF" filter="url(#f8tzo0ozsz07n)" height="31.291" style="stroke:#181818;stroke-width:1.0;" width="10" x="525.5" y="222.1152"/><rect fill="#FFFFFF" filter="url(#f8tzo0ozsz07n)" height="31.291" style="stroke:#181818;stroke-width:1.0;" width="10" x="525.5" y="284.6973"/><rect fill="#FFFFFF" filter="url(#f8tzo0ozsz07n)" height="31.291" style="stroke:#181818;stroke-width:1.0;" width="10" x="525.5" y="347.2793"/><polygon fill="#181818" points="513.5,155.5332,523.5,159.5332,513.5,163.5332,517.5,159.5332" style="stroke:#181818;stroke-width:1.0;"/><line style="stroke:#181818;stroke-width:1.0;" x1="54.5" x2="519.5" y1="159.5332" y2="159.5332"/><text fill="#000000" font-family="sans-serif" font-size="13" font-weight="bold" lengthAdjust="spacing" textLength="7" x="61.5" y="154.2705">1</text><text fill="#000000" font-family="sans-serif" font-size="13" lengthAdjust="spacing" textLength="420" x="72.5" y="154.2705">starts the process of getting a list of employees with a given function/role</text><polygon fill="#181818" points="65.5,186.8242,55.5,190.8242,65.5,194.8242,61.5,190.8242" style="stroke:#181818;stroke-width:1.0;"/><line style="stroke:#181818;stroke-width:1.0;stroke-dasharray:2.0,2.0;" x1="59.5" x2="529.5" y1="190.8242" y2="190.8242"/><text fill="#000000" font-family="sans-serif" font-size="13" font-weight="bold" lengthAdjust="spacing" textLength="7" x="71.5" y="185.5615">2</text><text fill="#000000" font-family="sans-serif" font-size="13" lengthAdjust="spacing" textLength="201" x="82.5" y="185.5615">requests the specified function/role</text><polygon fill="#181818" points="513.5,218.1152,523.5,222.1152,513.5,226.1152,517.5,222.1152" style="stroke:#181818;stroke-width:1.0;"/><line style="stroke:#181818;stroke-width:1.0;" x1="54.5" x2="519.5" y1="222.1152" y2="222.1152"/><text fill="#000000" font-family="sans-serif" font-size="13" font-weight="bold" lengthAdjust="spacing" textLength="7" x="61.5" y="216.8525">3</text><text fill="#000000" font-family="sans-serif" font-size="13" lengthAdjust="spacing" textLength="198" x="72.5" y="216.8525">provides the specified function/role</text><polygon fill="#181818" points="65.5,249.4063,55.5,253.4063,65.5,257.4063,61.5,253.4063" style="stroke:#181818;stroke-width:1.0;"/><line style="stroke:#181818;stroke-width:1.0;stroke-dasharray:2.0,2.0;" x1="59.5" x2="529.5" y1="253.4063" y2="253.4063"/><text fill="#000000" font-family="sans-serif" font-size="13" font-weight="bold" lengthAdjust="spacing" textLength="7" x="71.5" y="248.1436">4</text><text fill="#000000" font-family="sans-serif" font-size="13" lengthAdjust="spacing" textLength="436" x="82.5" y="248.1436">generates and displays the list of employees with the specified function/role</text><polygon fill="#181818" points="513.5,280.6973,523.5,284.6973,513.5,288.6973,517.5,284.6973" style="stroke:#181818;stroke-width:1.0;"/><line style="stroke:#181818;stroke-width:1.0;" x1="54.5" x2="519.5" y1="284.6973" y2="284.6973"/><text fill="#000000" font-family="sans-serif" font-size="13" font-weight="bold" lengthAdjust="spacing" textLength="7" x="61.5" y="279.4346">5</text><text fill="#000000" font-family="sans-serif" font-size="13" lengthAdjust="spacing" textLength="166" x="72.5" y="279.4346">reviews the list of employees</text><polygon fill="#181818" points="65.5,311.9883,55.5,315.9883,65.5,319.9883,61.5,315.9883" style="stroke:#181818;stroke-width:1.0;"/><line style="stroke:#181818;stroke-width:1.0;stroke-dasharray:2.0,2.0;" x1="59.5" x2="529.5" y1="315.9883" y2="315.9883"/><text fill="#000000" font-family="sans-serif" font-size="13" font-weight="bold" lengthAdjust="spacing" textLength="7" x="71.5" y="310.7256">6</text><text fill="#000000" font-family="sans-serif" font-size="13" lengthAdjust="spacing" textLength="259" x="82.5" y="310.7256">may request additional details or filter criteria</text><polygon fill="#181818" points="513.5,343.2793,523.5,347.2793,513.5,351.2793,517.5,347.2793" style="stroke:#181818;stroke-width:1.0;"/><line style="stroke:#181818;stroke-width:1.0;" x1="54.5" x2="519.5" y1="347.2793" y2="347.2793"/><text fill="#000000" font-family="sans-serif" font-size="13" font-weight="bold" lengthAdjust="spacing" textLength="7" x="61.5" y="342.0166">7</text><text fill="#000000" font-family="sans-serif" font-size="13" lengthAdjust="spacing" textLength="242" x="72.5" y="342.0166">confirms that the registration it's complete</text><polygon fill="#181818" points="60.5,374.5703,50.5,378.5703,60.5,382.5703,56.5,378.5703" style="stroke:#181818;stroke-width:1.0;"/><line style="stroke:#181818;stroke-width:1.0;stroke-dasharray:2.0,2.0;" x1="54.5" x2="529.5" y1="378.5703" y2="378.5703"/><text fill="#000000" font-family="sans-serif" font-size="13" font-weight="bold" lengthAdjust="spacing" textLength="7" x="66.5" y="373.3076">8</text><text fill="#000000" font-family="sans-serif" font-size="13" lengthAdjust="spacing" textLength="341" x="77.5" y="373.3076">provides feedback and notifies the success of the operation</text><!--SRC=[hLFDJiCm3BxtAImkm05ntm49YJVe4vZaQsUjIKhYRkhRuwvTnIR6922N_DdVZnENdSIUCmSAAIQtpIc0D0-eodhJizjnYrh73fJXb6FRVGqeM_Rf8B6TCoiLjSXwB8f0DJu6H0Tw4swdw8UwVdkiAXuqnI6y8zlQQShqweD4APhPTfL1gpZfEIhTRMQmE-Aou1wJPC-AYpooSNP2JoydBHigQh25T0lgSt8eXL93BLGd-KoTPKqd27sNHg3GGNHh5wti4QaPeh6c-9oJLM2YMbKiicWP2-EJaP-hsLW9hI9bKL5wE6a4_XjiZqlq6-xCqbuyRYF_GdMB25iRE4TFNahVyJWpNIdQlzlBs0iELpXN3zUytV0NU3oz3B7tCcdbpaGgIsU_95CZdIAJosAJy0fynSVFNboAZUGmcM4zEifevqWZ9j7xOZ5c3eg_Mbk_HGFuT-lcunF6fDFBB9zbSATccBQfnopa1vCNf-TT-0a0]--></g></svg>