<?xml version="1.0" encoding="us-ascii" standalone="no"?><svg xmlns="http://www.w3.org/2000/svg" xmlns:xlink="http://www.w3.org/1999/xlink" contentStyleType="text/css" height="448px" preserveAspectRatio="none" style="width:585px;height:448px;background:#FFFFFF;" version="1.1" viewBox="0 0 585 448" width="585px" zoomAndPan="magnify"><defs/><g><text fill="#000000" font-family="sans-serif" font-size="14" font-weight="bold" lengthAdjust="spacing" textLength="316" x="133.5" y="30.1074">Register an SNS user as a Receptionist (SSD)</text><rect fill="#FFFFFF" height="214.3281" style="stroke:#181818;stroke-width:1.0;" width="10" x="42" y="133.2422"/><rect fill="#FFFFFF" height="48.582" style="stroke:#181818;stroke-width:1.0;" width="10" x="542" y="156.5332"/><rect fill="#FFFFFF" height="31.291" style="stroke:#181818;stroke-width:1.0;" width="10" x="542" y="253.6973"/><rect fill="#FFFFFF" height="31.291" style="stroke:#181818;stroke-width:1.0;" width="10" x="542" y="316.2793"/><line style="stroke:#181818;stroke-width:0.5;stroke-dasharray:5.0,5.0;" x1="47" x2="47" y1="123.2422" y2="365.5703"/><line style="stroke:#181818;stroke-width:0.5;stroke-dasharray:5.0,5.0;" x1="547" x2="547" y1="123.2422" y2="365.5703"/><text fill="#000000" font-family="sans-serif" font-size="14" lengthAdjust="spacing" textLength="78" x="5" y="119.7285">Receptionist</text><ellipse cx="47" cy="53.1211" fill="#E3E3E3" rx="8" ry="8" style="stroke:#181818;stroke-width:0.5;"/><path d="M47,61.1211 L47,88.1211 M34,69.1211 L60,69.1211 M47,88.1211 L34,103.1211 M47,88.1211 L60,103.1211 " fill="none" style="stroke:#181818;stroke-width:0.5;"/><text fill="#000000" font-family="sans-serif" font-size="14" lengthAdjust="spacing" textLength="78" x="5" y="379.6777">Receptionist</text><ellipse cx="47" cy="391.6914" fill="#E3E3E3" rx="8" ry="8" style="stroke:#181818;stroke-width:0.5;"/><path d="M47,399.6914 L47,426.6914 M34,407.6914 L60,407.6914 M47,426.6914 L34,441.6914 M47,426.6914 L60,441.6914 " fill="none" style="stroke:#181818;stroke-width:0.5;"/><rect fill="#E3E3E3" height="32.6211" rx="2.5" ry="2.5" style="stroke:#181818;stroke-width:0.5;" width="64" x="515" y="89.6211"/><text fill="#000000" font-family="sans-serif" font-size="14" lengthAdjust="spacing" textLength="50" x="522" y="111.7285">:System</text><rect fill="#E3E3E3" height="32.6211" rx="2.5" ry="2.5" style="stroke:#181818;stroke-width:0.5;" width="64" x="515" y="364.5703"/><text fill="#000000" font-family="sans-serif" font-size="14" lengthAdjust="spacing" textLength="50" x="522" y="386.6777">:System</text><rect fill="#FFFFFF" height="214.3281" style="stroke:#181818;stroke-width:1.0;" width="10" x="42" y="133.2422"/><rect fill="#FFFFFF" height="48.582" style="stroke:#181818;stroke-width:1.0;" width="10" x="542" y="156.5332"/><rect fill="#FFFFFF" height="31.291" style="stroke:#181818;stroke-width:1.0;" width="10" x="542" y="253.6973"/><rect fill="#FFFFFF" height="31.291" style="stroke:#181818;stroke-width:1.0;" width="10" x="542" y="316.2793"/><polygon fill="#181818" points="530,152.5332,540,156.5332,530,160.5332,534,156.5332" style="stroke:#181818;stroke-width:1.0;"/><line style="stroke:#181818;stroke-width:1.0;" x1="52" x2="536" y1="156.5332" y2="156.5332"/><text fill="#000000" font-family="sans-serif" font-size="13" font-weight="bold" lengthAdjust="spacing" textLength="7" x="59" y="151.2705">1</text><text fill="#000000" font-family="sans-serif" font-size="13" lengthAdjust="spacing" textLength="281" x="70" y="151.2705">starts the process of registering a new SNS user</text><polygon fill="#181818" points="63,201.1152,53,205.1152,63,209.1152,59,205.1152" style="stroke:#181818;stroke-width:1.0;"/><line style="stroke:#181818;stroke-width:1.0;stroke-dasharray:2.0,2.0;" x1="57" x2="546" y1="205.1152" y2="205.1152"/><text fill="#000000" font-family="sans-serif" font-size="13" font-weight="bold" lengthAdjust="spacing" textLength="7" x="69" y="191.207">2</text><text fill="#000000" font-family="sans-serif" font-size="13" lengthAdjust="spacing" textLength="423" x="80" y="182.5615">requests data for the registration(Name, Birth Date, Sex, Postal Address,</text><text fill="#000000" font-family="sans-serif" font-size="13" lengthAdjust="spacing" textLength="451" x="84" y="199.8525">Phone Number, E-mail Address, Citizen Card Number and SNS User Number)</text><polygon fill="#181818" points="530,249.6973,540,253.6973,530,257.6973,534,253.6973" style="stroke:#181818;stroke-width:1.0;"/><line style="stroke:#181818;stroke-width:1.0;" x1="52" x2="536" y1="253.6973" y2="253.6973"/><text fill="#000000" font-family="sans-serif" font-size="13" font-weight="bold" lengthAdjust="spacing" textLength="7" x="59" y="239.7891">3</text><text fill="#000000" font-family="sans-serif" font-size="13" lengthAdjust="spacing" textLength="349" x="70" y="231.1436">fills requested data (Name, Birth Date, Sex, Postal Address,</text><text fill="#000000" font-family="sans-serif" font-size="13" lengthAdjust="spacing" textLength="451" x="74" y="248.4346">Phone Number, E-mail Address, Citizen Card Number and SNS User Number)</text><polygon fill="#181818" points="63,280.9883,53,284.9883,63,288.9883,59,284.9883" style="stroke:#181818;stroke-width:1.0;"/><line style="stroke:#181818;stroke-width:1.0;stroke-dasharray:2.0,2.0;" x1="57" x2="546" y1="284.9883" y2="284.9883"/><text fill="#000000" font-family="sans-serif" font-size="13" font-weight="bold" lengthAdjust="spacing" textLength="7" x="69" y="279.7256">4</text><text fill="#000000" font-family="sans-serif" font-size="13" lengthAdjust="spacing" textLength="199" x="80" y="279.7256">validates and asks for confirmation</text><polygon fill="#181818" points="530,312.2793,540,316.2793,530,320.2793,534,316.2793" style="stroke:#181818;stroke-width:1.0;"/><line style="stroke:#181818;stroke-width:1.0;" x1="52" x2="536" y1="316.2793" y2="316.2793"/><text fill="#000000" font-family="sans-serif" font-size="13" font-weight="bold" lengthAdjust="spacing" textLength="7" x="59" y="311.0166">5</text><text fill="#000000" font-family="sans-serif" font-size="13" lengthAdjust="spacing" textLength="49" x="70" y="311.0166">confirms</text><polygon fill="#181818" points="58,343.5703,48,347.5703,58,351.5703,54,347.5703" style="stroke:#181818;stroke-width:1.0;"/><line style="stroke:#181818;stroke-width:1.0;stroke-dasharray:2.0,2.0;" x1="52" x2="546" y1="347.5703" y2="347.5703"/><text fill="#000000" font-family="sans-serif" font-size="13" font-weight="bold" lengthAdjust="spacing" textLength="7" x="64" y="342.3076">6</text><text fill="#000000" font-family="sans-serif" font-size="13" lengthAdjust="spacing" textLength="370" x="75" y="342.3076">records the information and notifies the success of the operation</text><!--SRC=[nLFDJiCm3BxtAInE87Kli0CIVzTfekB6nIJkQgrDIkmonjFZfcLQEI31XPpSsFb-R5Vs77fCs44NGtHDYXs1fe4AEMLwT7lSKQN7bY2HKmoxzhn06lJnm647DRP2HQ6iLlf8EnQb11YWsbGmo1WBe6KSzSenM1ukg-h-gYXmq1Y6xeMInKvZMbGLngJikCUWSB6kZWRSNOneKvZVy1igBP-1dGNRwdf-0MiGDL01RGZw51s9GApDuIHxz8CGw70Idz5EF3Cnp6T6NHd1Wd1jWAy3YH5vL8JQd8sC4qt2iUvoWnsLSCj96xWty18gUYzX6qrY2pVU9nDNmdE0RHC3mIOtgeI7LOTyLd37oXyKu0wJduki-puxU1hRFzrTPTMUldlvkLqrjwrykI4_sVaVwRyVmXksR899CYZANl8aN0mrfovFuKzDcG7apxlXOlBJ3d8mHPEKB394vPffIihWlXPq_8mzfPz4dzqi_eTF]--></g></svg>