<?xml version="1.0" encoding="us-ascii" standalone="no"?><svg xmlns="http://www.w3.org/2000/svg" xmlns:xlink="http://www.w3.org/1999/xlink" contentStyleType="text/css" height="1914px" preserveAspectRatio="none" style="width:2383px;height:1914px;background:#FFFFFF;" version="1.1" viewBox="0 0 2383 1914" width="2383px" zoomAndPan="magnify"><defs/><g><text fill="#000000" font-family="sans-serif" font-size="14" font-weight="bold" lengthAdjust="spacing" textLength="190" x="1098.75" y="30.1074">Create Online Appointment</text><rect fill="#FFFFFF" height="1679.9199" style="stroke:#181818;stroke-width:1.0;" width="10" x="31" y="133.2422"/><rect fill="#FFFFFF" height="351.2402" style="stroke:#181818;stroke-width:1.0;" width="10" x="471" y="156.5332"/><rect fill="#FFFFFF" height="307.6191" style="stroke:#181818;stroke-width:1.0;" width="10" x="471" y="539.0645"/><rect fill="#FFFFFF" height="307.6191" style="stroke:#181818;stroke-width:1.0;" width="10" x="471" y="877.9746"/><rect fill="#FFFFFF" height="319.9492" style="stroke:#181818;stroke-width:1.0;" width="10" x="471" y="1216.8848"/><rect fill="#FFFFFF" height="245.0371" style="stroke:#181818;stroke-width:1.0;" width="10" x="471" y="1568.125"/><rect fill="#FFFFFF" height="245.0371" style="stroke:#181818;stroke-width:1.0;" width="10" x="938" y="231.4453"/><rect fill="#FFFFFF" height="245.0371" style="stroke:#181818;stroke-width:1.0;" width="10" x="938" y="570.3555"/><rect fill="#FFFFFF" height="245.0371" style="stroke:#181818;stroke-width:1.0;" width="10" x="938" y="909.2656"/><rect fill="#FFFFFF" height="257.3672" style="stroke:#181818;stroke-width:1.0;" width="10" x="938" y="1248.1758"/><rect fill="#FFFFFF" height="182.4551" style="stroke:#181818;stroke-width:1.0;" width="10" x="938" y="1599.416"/><rect fill="#FFFFFF" height="75.582" style="stroke:#181818;stroke-width:1.0;" width="10" x="1167" y="262.7363"/><rect fill="#FFFFFF" height="75.582" style="stroke:#181818;stroke-width:1.0;" width="10" x="1167" y="601.6465"/><rect fill="#FFFFFF" height="75.582" style="stroke:#181818;stroke-width:1.0;" width="10" x="1167" y="940.5566"/><rect fill="#FFFFFF" height="75.582" style="stroke:#181818;stroke-width:1.0;" width="10" x="1386" y="708.5195"/><rect fill="#FFFFFF" height="75.582" style="stroke:#181818;stroke-width:1.0;" width="10" x="1386" y="1047.4297"/><rect fill="#FFFFFF" height="75.582" style="stroke:#181818;stroke-width:1.0;" width="10" x="1686.5" y="369.6094"/><rect fill="#FFFFFF" height="194.7852" style="stroke:#181818;stroke-width:1.0;" width="10" x="2037.5" y="1279.4668"/><rect fill="#FFFFFF" height="119.873" style="stroke:#181818;stroke-width:1.0;" width="10" x="2037.5" y="1630.707"/><rect fill="#FFFFFF" height="77.9121" style="stroke:#181818;stroke-width:1.0;" width="10" x="2249.5" y="1320.7578"/><line style="stroke:#181818;stroke-width:0.5;stroke-dasharray:5.0,5.0;" x1="36" x2="36" y1="123.2422" y2="1831.1621"/><line style="stroke:#181818;stroke-width:0.5;stroke-dasharray:5.0,5.0;" x1="476" x2="476" y1="123.2422" y2="1831.1621"/><line style="stroke:#181818;stroke-width:0.5;stroke-dasharray:5.0,5.0;" x1="943" x2="943" y1="196.3438" y2="1831.1621"/><line style="stroke:#181818;stroke-width:0.5;stroke-dasharray:5.0,5.0;" x1="1171.5" x2="1171.5" y1="123.2422" y2="1831.1621"/><line style="stroke:#181818;stroke-width:0.5;stroke-dasharray:5.0,5.0;" x1="1390.5" x2="1390.5" y1="123.2422" y2="1831.1621"/><line style="stroke:#181818;stroke-width:0.5;stroke-dasharray:5.0,5.0;" x1="1691.5" x2="1691.5" y1="123.2422" y2="1831.1621"/><line style="stroke:#181818;stroke-width:0.5;stroke-dasharray:5.0,5.0;" x1="1901.5" x2="1901.5" y1="123.2422" y2="1831.1621"/><line style="stroke:#181818;stroke-width:0.5;stroke-dasharray:5.0,5.0;" x1="2042.5" x2="2042.5" y1="123.2422" y2="1831.1621"/><line style="stroke:#181818;stroke-width:0.5;stroke-dasharray:5.0,5.0;" x1="2254.5" x2="2254.5" y1="1319.2773" y2="1831.1621"/><text fill="#000000" font-family="sans-serif" font-size="14" lengthAdjust="spacing" textLength="56" x="5" y="119.7285">SNSUser</text><ellipse cx="36" cy="53.1211" fill="#E3E3E3" rx="8" ry="8" style="stroke:#181818;stroke-width:0.5;"/><path d="M36,61.1211 L36,88.1211 M23,69.1211 L49,69.1211 M36,88.1211 L23,103.1211 M36,88.1211 L49,103.1211 " fill="none" style="stroke:#181818;stroke-width:0.5;"/><text fill="#000000" font-family="sans-serif" font-size="14" lengthAdjust="spacing" textLength="56" x="5" y="1845.2695">SNSUser</text><ellipse cx="36" cy="1857.2832" fill="#E3E3E3" rx="8" ry="8" style="stroke:#181818;stroke-width:0.5;"/><path d="M36,1865.2832 L36,1892.2832 M23,1873.2832 L49,1873.2832 M36,1892.2832 L23,1907.2832 M36,1892.2832 L49,1907.2832 " fill="none" style="stroke:#181818;stroke-width:0.5;"/><rect fill="#E3E3E3" height="32.6211" rx="2.5" ry="2.5" style="stroke:#181818;stroke-width:0.5;" width="152" x="400" y="89.6211"/><text fill="#000000" font-family="sans-serif" font-size="14" lengthAdjust="spacing" textLength="138" x="407" y="111.7285">:CreateAppointmentUI</text><rect fill="#E3E3E3" height="32.6211" rx="2.5" ry="2.5" style="stroke:#181818;stroke-width:0.5;" width="152" x="400" y="1830.1621"/><text fill="#000000" font-family="sans-serif" font-size="14" lengthAdjust="spacing" textLength="138" x="407" y="1852.2695">:CreateAppointmentUI</text><rect fill="#E3E3E3" height="32.6211" rx="2.5" ry="2.5" style="stroke:#181818;stroke-width:0.5;" width="202" x="842" y="1830.1621"/><text fill="#000000" font-family="sans-serif" font-size="14" lengthAdjust="spacing" textLength="188" x="849" y="1852.2695">:CreateAppointmentController</text><rect fill="#E3E3E3" height="32.6211" rx="2.5" ry="2.5" style="stroke:#181818;stroke-width:0.5;" width="93" x="1125.5" y="89.6211"/><text fill="#000000" font-family="sans-serif" font-size="14" lengthAdjust="spacing" textLength="79" x="1132.5" y="111.7285">Repositories</text><rect fill="#E3E3E3" height="32.6211" rx="2.5" ry="2.5" style="stroke:#181818;stroke-width:0.5;" width="93" x="1125.5" y="1830.1621"/><text fill="#000000" font-family="sans-serif" font-size="14" lengthAdjust="spacing" textLength="79" x="1132.5" y="1852.2695">Repositories</text><rect fill="#E3E3E3" height="32.6211" rx="2.5" ry="2.5" style="stroke:#181818;stroke-width:0.5;" width="317" x="1232.5" y="89.6211"/><text fill="#000000" font-family="sans-serif" font-size="14" lengthAdjust="spacing" textLength="303" x="1239.5" y="111.7285">healthFacilitiesRepo : HealthFacilitiesRepository</text><rect fill="#E3E3E3" height="32.6211" rx="2.5" ry="2.5" style="stroke:#181818;stroke-width:0.5;" width="317" x="1232.5" y="1830.1621"/><text fill="#000000" font-family="sans-serif" font-size="14" lengthAdjust="spacing" textLength="303" x="1239.5" y="1852.2695">healthFacilitiesRepo : HealthFacilitiesRepository</text><rect fill="#E3E3E3" height="32.6211" rx="2.5" ry="2.5" style="stroke:#181818;stroke-width:0.5;" width="264" x="1559.5" y="89.6211"/><text fill="#000000" font-family="sans-serif" font-size="14" lengthAdjust="spacing" textLength="250" x="1566.5" y="111.7285">vacTypeRepo : VaccineTypeRepository</text><rect fill="#E3E3E3" height="32.6211" rx="2.5" ry="2.5" style="stroke:#181818;stroke-width:0.5;" width="264" x="1559.5" y="1830.1621"/><text fill="#000000" font-family="sans-serif" font-size="14" lengthAdjust="spacing" textLength="250" x="1566.5" y="1852.2695">vacTypeRepo : VaccineTypeRepository</text><rect fill="#E3E3E3" height="32.6211" rx="2.5" ry="2.5" style="stroke:#181818;stroke-width:0.5;" width="136" x="1833.5" y="89.6211"/><text fill="#000000" font-family="sans-serif" font-size="14" lengthAdjust="spacing" textLength="122" x="1840.5" y="111.7285">vacType : VacType</text><rect fill="#E3E3E3" height="32.6211" rx="2.5" ry="2.5" style="stroke:#181818;stroke-width:0.5;" width="136" x="1833.5" y="1830.1621"/><text fill="#000000" font-family="sans-serif" font-size="14" lengthAdjust="spacing" textLength="122" x="1840.5" y="1852.2695">vacType : VacType</text><rect fill="#E3E3E3" height="32.6211" rx="2.5" ry="2.5" style="stroke:#181818;stroke-width:0.5;" width="126" x="1979.5" y="89.6211"/><text fill="#000000" font-family="sans-serif" font-size="14" lengthAdjust="spacing" textLength="112" x="1986.5" y="111.7285">appointmentRepo</text><rect fill="#E3E3E3" height="32.6211" rx="2.5" ry="2.5" style="stroke:#181818;stroke-width:0.5;" width="126" x="1979.5" y="1830.1621"/><text fill="#000000" font-family="sans-serif" font-size="14" lengthAdjust="spacing" textLength="112" x="1986.5" y="1852.2695">appointmentRepo</text><rect fill="#E3E3E3" height="32.6211" rx="2.5" ry="2.5" style="stroke:#181818;stroke-width:0.5;" width="92" x="2208.5" y="1830.1621"/><text fill="#000000" font-family="sans-serif" font-size="14" lengthAdjust="spacing" textLength="78" x="2215.5" y="1852.2695">appointment</text><rect fill="#FFFFFF" height="1679.9199" style="stroke:#181818;stroke-width:1.0;" width="10" x="31" y="133.2422"/><rect fill="#FFFFFF" height="351.2402" style="stroke:#181818;stroke-width:1.0;" width="10" x="471" y="156.5332"/><rect fill="#FFFFFF" height="307.6191" style="stroke:#181818;stroke-width:1.0;" width="10" x="471" y="539.0645"/><rect fill="#FFFFFF" height="307.6191" style="stroke:#181818;stroke-width:1.0;" width="10" x="471" y="877.9746"/><rect fill="#FFFFFF" height="319.9492" style="stroke:#181818;stroke-width:1.0;" width="10" x="471" y="1216.8848"/><rect fill="#FFFFFF" height="245.0371" style="stroke:#181818;stroke-width:1.0;" width="10" x="471" y="1568.125"/><rect fill="#FFFFFF" height="245.0371" style="stroke:#181818;stroke-width:1.0;" width="10" x="938" y="231.4453"/><rect fill="#FFFFFF" height="245.0371" style="stroke:#181818;stroke-width:1.0;" width="10" x="938" y="570.3555"/><rect fill="#FFFFFF" height="245.0371" style="stroke:#181818;stroke-width:1.0;" width="10" x="938" y="909.2656"/><rect fill="#FFFFFF" height="257.3672" style="stroke:#181818;stroke-width:1.0;" width="10" x="938" y="1248.1758"/><rect fill="#FFFFFF" height="182.4551" style="stroke:#181818;stroke-width:1.0;" width="10" x="938" y="1599.416"/><rect fill="#FFFFFF" height="75.582" style="stroke:#181818;stroke-width:1.0;" width="10" x="1167" y="262.7363"/><rect fill="#FFFFFF" height="75.582" style="stroke:#181818;stroke-width:1.0;" width="10" x="1167" y="601.6465"/><rect fill="#FFFFFF" height="75.582" style="stroke:#181818;stroke-width:1.0;" width="10" x="1167" y="940.5566"/><rect fill="#FFFFFF" height="75.582" style="stroke:#181818;stroke-width:1.0;" width="10" x="1386" y="708.5195"/><rect fill="#FFFFFF" height="75.582" style="stroke:#181818;stroke-width:1.0;" width="10" x="1386" y="1047.4297"/><rect fill="#FFFFFF" height="75.582" style="stroke:#181818;stroke-width:1.0;" width="10" x="1686.5" y="369.6094"/><rect fill="#FFFFFF" height="194.7852" style="stroke:#181818;stroke-width:1.0;" width="10" x="2037.5" y="1279.4668"/><rect fill="#FFFFFF" height="119.873" style="stroke:#181818;stroke-width:1.0;" width="10" x="2037.5" y="1630.707"/><rect fill="#FFFFFF" height="77.9121" style="stroke:#181818;stroke-width:1.0;" width="10" x="2249.5" y="1320.7578"/><polygon fill="#181818" points="459,152.5332,469,156.5332,459,160.5332,463,156.5332" style="stroke:#181818;stroke-width:1.0;"/><line style="stroke:#181818;stroke-width:1.0;" x1="41" x2="465" y1="156.5332" y2="156.5332"/><text fill="#000000" font-family="sans-serif" font-size="13" font-weight="bold" lengthAdjust="spacing" textLength="7" x="48" y="151.2705">1</text><text fill="#000000" font-family="sans-serif" font-size="13" lengthAdjust="spacing" textLength="282" x="59" y="151.2705">starts the process of creating a new appointment</text><polygon fill="#181818" points="830,183.8242,840,187.8242,830,191.8242,834,187.8242" style="stroke:#181818;stroke-width:1.0;"/><line style="stroke:#181818;stroke-width:1.0;" x1="481" x2="836" y1="187.8242" y2="187.8242"/><text fill="#000000" font-family="sans-serif" font-size="13" font-weight="bold" lengthAdjust="spacing" textLength="7" x="488" y="182.5615">2</text><text fill="#000000" font-family="sans-serif" font-size="13" lengthAdjust="spacing" textLength="44" x="499" y="182.5615">create()</text><rect fill="#E3E3E3" height="32.6211" rx="2.5" ry="2.5" style="stroke:#181818;stroke-width:0.5;" width="202" x="842" y="164.5332"/><text fill="#000000" font-family="sans-serif" font-size="14" lengthAdjust="spacing" textLength="188" x="849" y="186.6406">:CreateAppointmentController</text><polygon fill="#181818" points="926,227.4453,936,231.4453,926,235.4453,930,231.4453" style="stroke:#181818;stroke-width:1.0;"/><line style="stroke:#181818;stroke-width:1.0;" x1="481" x2="932" y1="231.4453" y2="231.4453"/><text fill="#000000" font-family="sans-serif" font-size="13" font-weight="bold" lengthAdjust="spacing" textLength="7" x="488" y="226.1826">3</text><text fill="#000000" font-family="sans-serif" font-size="13" lengthAdjust="spacing" textLength="139" x="499" y="226.1826">getVacTypeRepository()</text><polygon fill="#181818" points="1155,258.7363,1165,262.7363,1155,266.7363,1159,262.7363" style="stroke:#181818;stroke-width:1.0;"/><line style="stroke:#181818;stroke-width:1.0;" x1="948" x2="1161" y1="262.7363" y2="262.7363"/><text fill="#000000" font-family="sans-serif" font-size="13" font-weight="bold" lengthAdjust="spacing" textLength="7" x="955" y="257.4736">4</text><text fill="#000000" font-family="sans-serif" font-size="13" lengthAdjust="spacing" textLength="139" x="966" y="257.4736">getVacTypeRepository()</text><line style="stroke:#181818;stroke-width:1.0;" x1="1177" x2="1219" y1="294.0273" y2="294.0273"/><line style="stroke:#181818;stroke-width:1.0;" x1="1219" x2="1219" y1="294.0273" y2="307.0273"/><line style="stroke:#181818;stroke-width:1.0;" x1="1178" x2="1219" y1="307.0273" y2="307.0273"/><polygon fill="#181818" points="1188,303.0273,1178,307.0273,1188,311.0273,1184,307.0273" style="stroke:#181818;stroke-width:1.0;"/><text fill="#000000" font-family="sans-serif" font-size="13" font-weight="bold" lengthAdjust="spacing" textLength="7" x="1184" y="288.7646">5</text><text fill="#000000" font-family="sans-serif" font-size="13" lengthAdjust="spacing" textLength="117" x="1195" y="288.7646">vacTypeRepository()</text><polygon fill="#181818" points="959,334.3184,949,338.3184,959,342.3184,955,338.3184" style="stroke:#181818;stroke-width:1.0;"/><line style="stroke:#181818;stroke-width:1.0;stroke-dasharray:2.0,2.0;" x1="953" x2="1171" y1="338.3184" y2="338.3184"/><text fill="#000000" font-family="sans-serif" font-size="13" font-weight="bold" lengthAdjust="spacing" textLength="7" x="965" y="333.0557">6</text><text fill="#000000" font-family="sans-serif" font-size="13" lengthAdjust="spacing" textLength="77" x="976" y="333.0557">vacTypeRepo</text><polygon fill="#181818" points="1674.5,365.6094,1684.5,369.6094,1674.5,373.6094,1678.5,369.6094" style="stroke:#181818;stroke-width:1.0;"/><line style="stroke:#181818;stroke-width:1.0;" x1="948" x2="1680.5" y1="369.6094" y2="369.6094"/><text fill="#000000" font-family="sans-serif" font-size="13" font-weight="bold" lengthAdjust="spacing" textLength="7" x="955" y="364.3467">7</text><text fill="#000000" font-family="sans-serif" font-size="13" lengthAdjust="spacing" textLength="139" x="966" y="364.3467">getVacTypeRepository()</text><line style="stroke:#181818;stroke-width:1.0;" x1="1696.5" x2="1738.5" y1="400.9004" y2="400.9004"/><line style="stroke:#181818;stroke-width:1.0;" x1="1738.5" x2="1738.5" y1="400.9004" y2="413.9004"/><line style="stroke:#181818;stroke-width:1.0;" x1="1697.5" x2="1738.5" y1="413.9004" y2="413.9004"/><polygon fill="#181818" points="1707.5,409.9004,1697.5,413.9004,1707.5,417.9004,1703.5,413.9004" style="stroke:#181818;stroke-width:1.0;"/><text fill="#000000" font-family="sans-serif" font-size="13" font-weight="bold" lengthAdjust="spacing" textLength="7" x="1703.5" y="395.6377">8</text><text fill="#000000" font-family="sans-serif" font-size="13" lengthAdjust="spacing" textLength="117" x="1714.5" y="395.6377">vacTypeRepository()</text><polygon fill="#181818" points="959,441.1914,949,445.1914,959,449.1914,955,445.1914" style="stroke:#181818;stroke-width:1.0;"/><line style="stroke:#181818;stroke-width:1.0;stroke-dasharray:2.0,2.0;" x1="953" x2="1690.5" y1="445.1914" y2="445.1914"/><text fill="#000000" font-family="sans-serif" font-size="13" font-weight="bold" lengthAdjust="spacing" textLength="7" x="965" y="439.9287">9</text><text fill="#000000" font-family="sans-serif" font-size="13" lengthAdjust="spacing" textLength="77" x="976" y="439.9287">vacTypeRepo</text><polygon fill="#181818" points="492,472.4824,482,476.4824,492,480.4824,488,476.4824" style="stroke:#181818;stroke-width:1.0;"/><line style="stroke:#181818;stroke-width:1.0;stroke-dasharray:2.0,2.0;" x1="486" x2="942" y1="476.4824" y2="476.4824"/><text fill="#000000" font-family="sans-serif" font-size="13" font-weight="bold" lengthAdjust="spacing" textLength="14" x="498" y="471.2197">10</text><text fill="#000000" font-family="sans-serif" font-size="13" lengthAdjust="spacing" textLength="68" x="516" y="471.2197">vacTypeList</text><polygon fill="#181818" points="52,503.7734,42,507.7734,52,511.7734,48,507.7734" style="stroke:#181818;stroke-width:1.0;"/><line style="stroke:#181818;stroke-width:1.0;stroke-dasharray:2.0,2.0;" x1="46" x2="475" y1="507.7734" y2="507.7734"/><text fill="#000000" font-family="sans-serif" font-size="13" font-weight="bold" lengthAdjust="spacing" textLength="14" x="58" y="502.5107">11</text><text fill="#000000" font-family="sans-serif" font-size="13" lengthAdjust="spacing" textLength="307" x="76" y="502.5107">shows the Vaccine types available and requests data</text><polygon fill="#181818" points="459,535.0645,469,539.0645,459,543.0645,463,539.0645" style="stroke:#181818;stroke-width:1.0;"/><line style="stroke:#181818;stroke-width:1.0;" x1="41" x2="465" y1="539.0645" y2="539.0645"/><text fill="#000000" font-family="sans-serif" font-size="13" font-weight="bold" lengthAdjust="spacing" textLength="14" x="48" y="533.8018">12</text><text fill="#000000" font-family="sans-serif" font-size="13" lengthAdjust="spacing" textLength="111" x="66" y="533.8018">chooses a vacType</text><polygon fill="#181818" points="926,566.3555,936,570.3555,926,574.3555,930,570.3555" style="stroke:#181818;stroke-width:1.0;"/><line style="stroke:#181818;stroke-width:1.0;" x1="481" x2="932" y1="570.3555" y2="570.3555"/><text fill="#000000" font-family="sans-serif" font-size="13" font-weight="bold" lengthAdjust="spacing" textLength="14" x="488" y="565.0928">13</text><text fill="#000000" font-family="sans-serif" font-size="13" lengthAdjust="spacing" textLength="177" x="506" y="565.0928">getHealthFacilitiesRepository()</text><polygon fill="#181818" points="1155,597.6465,1165,601.6465,1155,605.6465,1159,601.6465" style="stroke:#181818;stroke-width:1.0;"/><line style="stroke:#181818;stroke-width:1.0;" x1="948" x2="1161" y1="601.6465" y2="601.6465"/><text fill="#000000" font-family="sans-serif" font-size="13" font-weight="bold" lengthAdjust="spacing" textLength="14" x="955" y="596.3838">14</text><text fill="#000000" font-family="sans-serif" font-size="13" lengthAdjust="spacing" textLength="177" x="973" y="596.3838">getHealthFacilitiesRepository()</text><line style="stroke:#181818;stroke-width:1.0;" x1="1177" x2="1219" y1="632.9375" y2="632.9375"/><line style="stroke:#181818;stroke-width:1.0;" x1="1219" x2="1219" y1="632.9375" y2="645.9375"/><line style="stroke:#181818;stroke-width:1.0;" x1="1178" x2="1219" y1="645.9375" y2="645.9375"/><polygon fill="#181818" points="1188,641.9375,1178,645.9375,1188,649.9375,1184,645.9375" style="stroke:#181818;stroke-width:1.0;"/><text fill="#000000" font-family="sans-serif" font-size="13" font-weight="bold" lengthAdjust="spacing" textLength="14" x="1184" y="627.6748">15</text><text fill="#000000" font-family="sans-serif" font-size="13" lengthAdjust="spacing" textLength="177" x="1202" y="627.6748">getHealthFacilitiesRepository()</text><polygon fill="#181818" points="959,673.2285,949,677.2285,959,681.2285,955,677.2285" style="stroke:#181818;stroke-width:1.0;"/><line style="stroke:#181818;stroke-width:1.0;stroke-dasharray:2.0,2.0;" x1="953" x2="1171" y1="677.2285" y2="677.2285"/><text fill="#000000" font-family="sans-serif" font-size="13" font-weight="bold" lengthAdjust="spacing" textLength="14" x="965" y="671.9658">16</text><text fill="#000000" font-family="sans-serif" font-size="13" lengthAdjust="spacing" textLength="177" x="983" y="671.9658">getHealthFacilitiesRepository()</text><polygon fill="#181818" points="1374,704.5195,1384,708.5195,1374,712.5195,1378,708.5195" style="stroke:#181818;stroke-width:1.0;"/><line style="stroke:#181818;stroke-width:1.0;" x1="948" x2="1380" y1="708.5195" y2="708.5195"/><text fill="#000000" font-family="sans-serif" font-size="13" font-weight="bold" lengthAdjust="spacing" textLength="14" x="955" y="703.2568">17</text><text fill="#000000" font-family="sans-serif" font-size="13" lengthAdjust="spacing" textLength="177" x="973" y="703.2568">getHealthFacilitiesRepository()</text><line style="stroke:#181818;stroke-width:1.0;" x1="1396" x2="1438" y1="739.8105" y2="739.8105"/><line style="stroke:#181818;stroke-width:1.0;" x1="1438" x2="1438" y1="739.8105" y2="752.8105"/><line style="stroke:#181818;stroke-width:1.0;" x1="1397" x2="1438" y1="752.8105" y2="752.8105"/><polygon fill="#181818" points="1407,748.8105,1397,752.8105,1407,756.8105,1403,752.8105" style="stroke:#181818;stroke-width:1.0;"/><text fill="#000000" font-family="sans-serif" font-size="13" font-weight="bold" lengthAdjust="spacing" textLength="14" x="1403" y="734.5479">18</text><text fill="#000000" font-family="sans-serif" font-size="13" lengthAdjust="spacing" textLength="177" x="1421" y="734.5479">getHealthFacilitiesRepository()</text><polygon fill="#181818" points="959,780.1016,949,784.1016,959,788.1016,955,784.1016" style="stroke:#181818;stroke-width:1.0;"/><line style="stroke:#181818;stroke-width:1.0;stroke-dasharray:2.0,2.0;" x1="953" x2="1390" y1="784.1016" y2="784.1016"/><text fill="#000000" font-family="sans-serif" font-size="13" font-weight="bold" lengthAdjust="spacing" textLength="14" x="965" y="778.8389">19</text><text fill="#000000" font-family="sans-serif" font-size="13" lengthAdjust="spacing" textLength="108" x="983" y="778.8389">healthFacilitiesList</text><polygon fill="#181818" points="492,811.3926,482,815.3926,492,819.3926,488,815.3926" style="stroke:#181818;stroke-width:1.0;"/><line style="stroke:#181818;stroke-width:1.0;stroke-dasharray:2.0,2.0;" x1="486" x2="942" y1="815.3926" y2="815.3926"/><text fill="#000000" font-family="sans-serif" font-size="13" font-weight="bold" lengthAdjust="spacing" textLength="14" x="498" y="810.1299">20</text><text fill="#000000" font-family="sans-serif" font-size="13" lengthAdjust="spacing" textLength="108" x="516" y="810.1299">healthFacilitiesList</text><polygon fill="#181818" points="52,842.6836,42,846.6836,52,850.6836,48,846.6836" style="stroke:#181818;stroke-width:1.0;"/><line style="stroke:#181818;stroke-width:1.0;stroke-dasharray:2.0,2.0;" x1="46" x2="475" y1="846.6836" y2="846.6836"/><text fill="#000000" font-family="sans-serif" font-size="13" font-weight="bold" lengthAdjust="spacing" textLength="14" x="58" y="841.4209">21</text><text fill="#000000" font-family="sans-serif" font-size="13" lengthAdjust="spacing" textLength="317" x="76" y="841.4209">shows the Health Facilities available and requests data</text><polygon fill="#181818" points="459,873.9746,469,877.9746,459,881.9746,463,877.9746" style="stroke:#181818;stroke-width:1.0;"/><line style="stroke:#181818;stroke-width:1.0;" x1="41" x2="465" y1="877.9746" y2="877.9746"/><text fill="#000000" font-family="sans-serif" font-size="13" font-weight="bold" lengthAdjust="spacing" textLength="14" x="48" y="872.7119">22</text><text fill="#000000" font-family="sans-serif" font-size="13" lengthAdjust="spacing" textLength="154" x="66" y="872.7119">chooses an Health Facility</text><polygon fill="#181818" points="926,905.2656,936,909.2656,926,913.2656,930,909.2656" style="stroke:#181818;stroke-width:1.0;"/><line style="stroke:#181818;stroke-width:1.0;" x1="481" x2="932" y1="909.2656" y2="909.2656"/><text fill="#000000" font-family="sans-serif" font-size="13" font-weight="bold" lengthAdjust="spacing" textLength="14" x="488" y="904.0029">23</text><text fill="#000000" font-family="sans-serif" font-size="13" lengthAdjust="spacing" textLength="159" x="506" y="904.0029">getHealthFacilitySchedule()</text><polygon fill="#181818" points="1155,936.5566,1165,940.5566,1155,944.5566,1159,940.5566" style="stroke:#181818;stroke-width:1.0;"/><line style="stroke:#181818;stroke-width:1.0;" x1="948" x2="1161" y1="940.5566" y2="940.5566"/><text fill="#000000" font-family="sans-serif" font-size="13" font-weight="bold" lengthAdjust="spacing" textLength="14" x="955" y="935.2939">24</text><text fill="#000000" font-family="sans-serif" font-size="13" lengthAdjust="spacing" textLength="159" x="973" y="935.2939">getHealthFacilitySchedule()</text><line style="stroke:#181818;stroke-width:1.0;" x1="1177" x2="1219" y1="971.8477" y2="971.8477"/><line style="stroke:#181818;stroke-width:1.0;" x1="1219" x2="1219" y1="971.8477" y2="984.8477"/><line style="stroke:#181818;stroke-width:1.0;" x1="1178" x2="1219" y1="984.8477" y2="984.8477"/><polygon fill="#181818" points="1188,980.8477,1178,984.8477,1188,988.8477,1184,984.8477" style="stroke:#181818;stroke-width:1.0;"/><text fill="#000000" font-family="sans-serif" font-size="13" font-weight="bold" lengthAdjust="spacing" textLength="14" x="1184" y="966.585">25</text><text fill="#000000" font-family="sans-serif" font-size="13" lengthAdjust="spacing" textLength="151" x="1202" y="966.585">getHealthFacilitySchedule</text><polygon fill="#181818" points="959,1012.1387,949,1016.1387,959,1020.1387,955,1016.1387" style="stroke:#181818;stroke-width:1.0;"/><line style="stroke:#181818;stroke-width:1.0;stroke-dasharray:2.0,2.0;" x1="953" x2="1171" y1="1016.1387" y2="1016.1387"/><text fill="#000000" font-family="sans-serif" font-size="13" font-weight="bold" lengthAdjust="spacing" textLength="14" x="965" y="1010.876">26</text><text fill="#000000" font-family="sans-serif" font-size="13" lengthAdjust="spacing" textLength="151" x="983" y="1010.876">getHealthFacilitySchedule</text><polygon fill="#181818" points="1374,1043.4297,1384,1047.4297,1374,1051.4297,1378,1047.4297" style="stroke:#181818;stroke-width:1.0;"/><line style="stroke:#181818;stroke-width:1.0;" x1="948" x2="1380" y1="1047.4297" y2="1047.4297"/><text fill="#000000" font-family="sans-serif" font-size="13" font-weight="bold" lengthAdjust="spacing" textLength="14" x="955" y="1042.167">27</text><text fill="#000000" font-family="sans-serif" font-size="13" lengthAdjust="spacing" textLength="159" x="973" y="1042.167">getHealthFacilitySchedule()</text><line style="stroke:#181818;stroke-width:1.0;" x1="1396" x2="1438" y1="1078.7207" y2="1078.7207"/><line style="stroke:#181818;stroke-width:1.0;" x1="1438" x2="1438" y1="1078.7207" y2="1091.7207"/><line style="stroke:#181818;stroke-width:1.0;" x1="1397" x2="1438" y1="1091.7207" y2="1091.7207"/><polygon fill="#181818" points="1407,1087.7207,1397,1091.7207,1407,1095.7207,1403,1091.7207" style="stroke:#181818;stroke-width:1.0;"/><text fill="#000000" font-family="sans-serif" font-size="13" font-weight="bold" lengthAdjust="spacing" textLength="14" x="1403" y="1073.458">28</text><text fill="#000000" font-family="sans-serif" font-size="13" lengthAdjust="spacing" textLength="151" x="1421" y="1073.458">getHealthFacilitySchedule</text><polygon fill="#181818" points="959,1119.0117,949,1123.0117,959,1127.0117,955,1123.0117" style="stroke:#181818;stroke-width:1.0;"/><line style="stroke:#181818;stroke-width:1.0;stroke-dasharray:2.0,2.0;" x1="953" x2="1390" y1="1123.0117" y2="1123.0117"/><text fill="#000000" font-family="sans-serif" font-size="13" font-weight="bold" lengthAdjust="spacing" textLength="14" x="965" y="1117.749">29</text><text fill="#000000" font-family="sans-serif" font-size="13" lengthAdjust="spacing" textLength="131" x="983" y="1117.749">healthFacilitySchedule</text><polygon fill="#181818" points="492,1150.3027,482,1154.3027,492,1158.3027,488,1154.3027" style="stroke:#181818;stroke-width:1.0;"/><line style="stroke:#181818;stroke-width:1.0;stroke-dasharray:2.0,2.0;" x1="486" x2="942" y1="1154.3027" y2="1154.3027"/><text fill="#000000" font-family="sans-serif" font-size="13" font-weight="bold" lengthAdjust="spacing" textLength="14" x="498" y="1149.04">30</text><text fill="#000000" font-family="sans-serif" font-size="13" lengthAdjust="spacing" textLength="131" x="516" y="1149.04">healthFacilitySchedule</text><polygon fill="#181818" points="52,1181.5938,42,1185.5938,52,1189.5938,48,1185.5938" style="stroke:#181818;stroke-width:1.0;"/><line style="stroke:#181818;stroke-width:1.0;stroke-dasharray:2.0,2.0;" x1="46" x2="475" y1="1185.5938" y2="1185.5938"/><text fill="#000000" font-family="sans-serif" font-size="13" font-weight="bold" lengthAdjust="spacing" textLength="14" x="58" y="1180.3311">31</text><text fill="#000000" font-family="sans-serif" font-size="13" lengthAdjust="spacing" textLength="388" x="76" y="1180.3311">shows the facility Schedule (hour and day) and asks to choose one</text><polygon fill="#181818" points="459,1212.8848,469,1216.8848,459,1220.8848,463,1216.8848" style="stroke:#181818;stroke-width:1.0;"/><line style="stroke:#181818;stroke-width:1.0;" x1="41" x2="465" y1="1216.8848" y2="1216.8848"/><text fill="#000000" font-family="sans-serif" font-size="13" font-weight="bold" lengthAdjust="spacing" textLength="14" x="48" y="1211.6221">32</text><text fill="#000000" font-family="sans-serif" font-size="13" lengthAdjust="spacing" textLength="340" x="66" y="1211.6221">fills requested data (SNSUser number, chooses timeframe)</text><polygon fill="#181818" points="926,1244.1758,936,1248.1758,926,1252.1758,930,1248.1758" style="stroke:#181818;stroke-width:1.0;"/><line style="stroke:#181818;stroke-width:1.0;" x1="481" x2="932" y1="1248.1758" y2="1248.1758"/><text fill="#000000" font-family="sans-serif" font-size="13" font-weight="bold" lengthAdjust="spacing" textLength="14" x="488" y="1242.9131">33</text><text fill="#000000" font-family="sans-serif" font-size="13" lengthAdjust="spacing" textLength="420" x="506" y="1242.9131">createAppointment(SNSUser number, vacType, healthFacility, hour, day)</text><polygon fill="#181818" points="2025.5,1275.4668,2035.5,1279.4668,2025.5,1283.4668,2029.5,1279.4668" style="stroke:#181818;stroke-width:1.0;"/><line style="stroke:#181818;stroke-width:1.0;" x1="948" x2="2031.5" y1="1279.4668" y2="1279.4668"/><text fill="#000000" font-family="sans-serif" font-size="13" font-weight="bold" lengthAdjust="spacing" textLength="14" x="955" y="1274.2041">34</text><text fill="#000000" font-family="sans-serif" font-size="13" lengthAdjust="spacing" textLength="420" x="973" y="1274.2041">createAppointment(SNSUser number, vacType, healthFacility, hour, day)</text><polygon fill="#181818" points="2196.5,1306.7578,2206.5,1310.7578,2196.5,1314.7578,2200.5,1310.7578" style="stroke:#181818;stroke-width:1.0;"/><line style="stroke:#181818;stroke-width:1.0;" x1="2047.5" x2="2202.5" y1="1310.7578" y2="1310.7578"/><text fill="#000000" font-family="sans-serif" font-size="13" font-weight="bold" lengthAdjust="spacing" textLength="14" x="2054.5" y="1305.4951">35</text><text fill="#000000" font-family="sans-serif" font-size="13" lengthAdjust="spacing" textLength="44" x="2072.5" y="1305.4951">create()</text><rect fill="#E3E3E3" height="32.6211" rx="2.5" ry="2.5" style="stroke:#181818;stroke-width:0.5;" width="92" x="2208.5" y="1287.4668"/><text fill="#000000" font-family="sans-serif" font-size="14" lengthAdjust="spacing" textLength="78" x="2215.5" y="1309.5742">appointment</text><line style="stroke:#181818;stroke-width:1.0;" x1="2259.5" x2="2301.5" y1="1354.3789" y2="1354.3789"/><line style="stroke:#181818;stroke-width:1.0;" x1="2301.5" x2="2301.5" y1="1354.3789" y2="1367.3789"/><line style="stroke:#181818;stroke-width:1.0;" x1="2260.5" x2="2301.5" y1="1367.3789" y2="1367.3789"/><polygon fill="#181818" points="2270.5,1363.3789,2260.5,1367.3789,2270.5,1371.3789,2266.5,1367.3789" style="stroke:#181818;stroke-width:1.0;"/><text fill="#000000" font-family="sans-serif" font-size="13" font-weight="bold" lengthAdjust="spacing" textLength="14" x="2266.5" y="1349.1162">36</text><text fill="#000000" font-family="sans-serif" font-size="13" lengthAdjust="spacing" textLength="92" x="2284.5" y="1349.1162">localValidation()</text><polygon fill="#181818" points="2058.5,1394.6699,2048.5,1398.6699,2058.5,1402.6699,2054.5,1398.6699" style="stroke:#181818;stroke-width:1.0;"/><line style="stroke:#181818;stroke-width:1.0;stroke-dasharray:2.0,2.0;" x1="2052.5" x2="2253.5" y1="1398.6699" y2="1398.6699"/><text fill="#000000" font-family="sans-serif" font-size="13" font-weight="bold" lengthAdjust="spacing" textLength="14" x="2064.5" y="1393.4072">37</text><text fill="#000000" font-family="sans-serif" font-size="13" lengthAdjust="spacing" textLength="71" x="2082.5" y="1393.4072">appointment</text><line style="stroke:#181818;stroke-width:1.0;" x1="2047.5" x2="2089.5" y1="1429.9609" y2="1429.9609"/><line style="stroke:#181818;stroke-width:1.0;" x1="2089.5" x2="2089.5" y1="1429.9609" y2="1442.9609"/><line style="stroke:#181818;stroke-width:1.0;" x1="2048.5" x2="2089.5" y1="1442.9609" y2="1442.9609"/><polygon fill="#181818" points="2058.5,1438.9609,2048.5,1442.9609,2058.5,1446.9609,2054.5,1442.9609" style="stroke:#181818;stroke-width:1.0;"/><text fill="#000000" font-family="sans-serif" font-size="13" font-weight="bold" lengthAdjust="spacing" textLength="14" x="2054.5" y="1424.6982">38</text><text fill="#000000" font-family="sans-serif" font-size="13" lengthAdjust="spacing" textLength="170" x="2072.5" y="1424.6982">globalValidation(appointment)</text><polygon fill="#181818" points="959,1470.252,949,1474.252,959,1478.252,955,1474.252" style="stroke:#181818;stroke-width:1.0;"/><line style="stroke:#181818;stroke-width:1.0;stroke-dasharray:2.0,2.0;" x1="953" x2="2041.5" y1="1474.252" y2="1474.252"/><text fill="#000000" font-family="sans-serif" font-size="13" font-weight="bold" lengthAdjust="spacing" textLength="14" x="965" y="1468.9893">39</text><text fill="#000000" font-family="sans-serif" font-size="13" lengthAdjust="spacing" textLength="71" x="983" y="1468.9893">appointment</text><polygon fill="#181818" points="492,1501.543,482,1505.543,492,1509.543,488,1505.543" style="stroke:#181818;stroke-width:1.0;"/><line style="stroke:#181818;stroke-width:1.0;stroke-dasharray:2.0,2.0;" x1="486" x2="942" y1="1505.543" y2="1505.543"/><text fill="#000000" font-family="sans-serif" font-size="13" font-weight="bold" lengthAdjust="spacing" textLength="14" x="498" y="1500.2803">40</text><text fill="#000000" font-family="sans-serif" font-size="13" lengthAdjust="spacing" textLength="71" x="516" y="1500.2803">appointment</text><polygon fill="#181818" points="52,1532.834,42,1536.834,52,1540.834,48,1536.834" style="stroke:#181818;stroke-width:1.0;"/><line style="stroke:#181818;stroke-width:1.0;stroke-dasharray:2.0,2.0;" x1="46" x2="475" y1="1536.834" y2="1536.834"/><text fill="#000000" font-family="sans-serif" font-size="13" font-weight="bold" lengthAdjust="spacing" textLength="14" x="58" y="1531.5713">41</text><text fill="#000000" font-family="sans-serif" font-size="13" lengthAdjust="spacing" textLength="199" x="76" y="1531.5713">validates and asks for confirmation</text><polygon fill="#181818" points="459,1564.125,469,1568.125,459,1572.125,463,1568.125" style="stroke:#181818;stroke-width:1.0;"/><line style="stroke:#181818;stroke-width:1.0;" x1="41" x2="465" y1="1568.125" y2="1568.125"/><text fill="#000000" font-family="sans-serif" font-size="13" font-weight="bold" lengthAdjust="spacing" textLength="14" x="48" y="1562.8623">42</text><text fill="#000000" font-family="sans-serif" font-size="13" lengthAdjust="spacing" textLength="49" x="66" y="1562.8623">confirms</text><polygon fill="#181818" points="926,1595.416,936,1599.416,926,1603.416,930,1599.416" style="stroke:#181818;stroke-width:1.0;"/><line style="stroke:#181818;stroke-width:1.0;" x1="481" x2="932" y1="1599.416" y2="1599.416"/><text fill="#000000" font-family="sans-serif" font-size="13" font-weight="bold" lengthAdjust="spacing" textLength="14" x="488" y="1594.1533">43</text><text fill="#000000" font-family="sans-serif" font-size="13" lengthAdjust="spacing" textLength="34" x="506" y="1594.1533">save()</text><polygon fill="#181818" points="2025.5,1626.707,2035.5,1630.707,2025.5,1634.707,2029.5,1630.707" style="stroke:#181818;stroke-width:1.0;"/><line style="stroke:#181818;stroke-width:1.0;" x1="948" x2="2031.5" y1="1630.707" y2="1630.707"/><text fill="#000000" font-family="sans-serif" font-size="13" font-weight="bold" lengthAdjust="spacing" textLength="14" x="955" y="1625.4443">44</text><text fill="#000000" font-family="sans-serif" font-size="13" lengthAdjust="spacing" textLength="105" x="973" y="1625.4443">save(appointment)</text><line style="stroke:#181818;stroke-width:1.0;" x1="2047.5" x2="2089.5" y1="1661.998" y2="1661.998"/><line style="stroke:#181818;stroke-width:1.0;" x1="2089.5" x2="2089.5" y1="1661.998" y2="1674.998"/><line style="stroke:#181818;stroke-width:1.0;" x1="2048.5" x2="2089.5" y1="1674.998" y2="1674.998"/><polygon fill="#181818" points="2058.5,1670.998,2048.5,1674.998,2058.5,1678.998,2054.5,1674.998" style="stroke:#181818;stroke-width:1.0;"/><text fill="#000000" font-family="sans-serif" font-size="13" font-weight="bold" lengthAdjust="spacing" textLength="14" x="2054.5" y="1656.7354">45</text><text fill="#000000" font-family="sans-serif" font-size="13" lengthAdjust="spacing" textLength="170" x="2072.5" y="1656.7354">globalValidation(appointment)</text><line style="stroke:#181818;stroke-width:1.0;" x1="2047.5" x2="2089.5" y1="1706.2891" y2="1706.2891"/><line style="stroke:#181818;stroke-width:1.0;" x1="2089.5" x2="2089.5" y1="1706.2891" y2="1719.2891"/><line style="stroke:#181818;stroke-width:1.0;" x1="2048.5" x2="2089.5" y1="1719.2891" y2="1719.2891"/><polygon fill="#181818" points="2058.5,1715.2891,2048.5,1719.2891,2058.5,1723.2891,2054.5,1719.2891" style="stroke:#181818;stroke-width:1.0;"/><text fill="#000000" font-family="sans-serif" font-size="13" font-weight="bold" lengthAdjust="spacing" textLength="14" x="2054.5" y="1701.0264">46</text><text fill="#000000" font-family="sans-serif" font-size="13" lengthAdjust="spacing" textLength="100" x="2072.5" y="1701.0264">add(appointment)</text><polygon fill="#181818" points="959,1746.5801,949,1750.5801,959,1754.5801,955,1750.5801" style="stroke:#181818;stroke-width:1.0;"/><line style="stroke:#181818;stroke-width:1.0;stroke-dasharray:2.0,2.0;" x1="953" x2="2041.5" y1="1750.5801" y2="1750.5801"/><text fill="#000000" font-family="sans-serif" font-size="13" font-weight="bold" lengthAdjust="spacing" textLength="14" x="965" y="1745.3174">47</text><text fill="#000000" font-family="sans-serif" font-size="13" lengthAdjust="spacing" textLength="49" x="983" y="1745.3174">success</text><polygon fill="#181818" points="492,1777.8711,482,1781.8711,492,1785.8711,488,1781.8711" style="stroke:#181818;stroke-width:1.0;"/><line style="stroke:#181818;stroke-width:1.0;stroke-dasharray:2.0,2.0;" x1="486" x2="942" y1="1781.8711" y2="1781.8711"/><text fill="#000000" font-family="sans-serif" font-size="13" font-weight="bold" lengthAdjust="spacing" textLength="14" x="498" y="1776.6084">48</text><text fill="#000000" font-family="sans-serif" font-size="13" lengthAdjust="spacing" textLength="49" x="516" y="1776.6084">success</text><polygon fill="#181818" points="47,1809.1621,37,1813.1621,47,1817.1621,43,1813.1621" style="stroke:#181818;stroke-width:1.0;"/><line style="stroke:#181818;stroke-width:1.0;stroke-dasharray:2.0,2.0;" x1="41" x2="475" y1="1813.1621" y2="1813.1621"/><text fill="#000000" font-family="sans-serif" font-size="13" font-weight="bold" lengthAdjust="spacing" textLength="14" x="53" y="1807.8994">49</text><text fill="#000000" font-family="sans-serif" font-size="13" lengthAdjust="spacing" textLength="370" x="71" y="1807.8994">records the information and notifies the success of the operation</text><!--SRC=[lLZ1RjmW4BtxAr1EsIZvWHmYLP6gLgfQgTlaJl1uZOB11RpH_dt7sDu56zRs9erFjXdUC8_t0DkySbbJJIjIAQbOgLK5nEe6CdDigIbxfJlOseC0ee5PAdV23p0bpTKRbpjIK64Wooot6FgeWLeWlwJW4iYNkbPSsWgapJBQM2MRwWKqtZEhDDd-t3uPV4H4onclgRJawhw3yBe-VRyYr926pmK-Accr4WAqwy2i5a6Ntr0hmp4p1nDYbK25BRzInWMtsDf6adloBVBQ0HnSWbYl47TFsPz33JtSCsKCQHdUU4XUN1IWwzpU-U6EHxvl2H-ep0XU_GEvUq3IiAkn26c8BO7KMZ4mXgY2i9Q-TW8faV16g3TNBSWH6dad_OLeYDdoUdE3k0u1hZUHTcpTWNq-bTKLwyKUyTqq3MzTNyJmfseUAy0BPfcChW1tccS_asGASVVGb-jFeH-Um_p8Xgf3kIme-bHrAdrx-R2JB4jA3W3ML9mAwGeUzDb7_U36PX6GG223pB3l87CKUAdUEdtt5YCMyGoXUye5VS5rYSeSbx6_3HWqGaujpKP9KELHxx1IATD27KqteTupICm4wKKafU19mMbNh0TFYd366ckIZIro2HjhV9DOlY_Y9xgeZmqHJVWn0qd3dtWSjmVE6P4tMq_enJNGQupPrKzEmBFcJ2LROrevodk8Rcrd7NlOiXBoHi3ithN2gJ7G3zl4aibcjxAUWsK0_y6WixHyXZdJTAsovInfxp7c53nbopEMB7eiCe2Hwr8rsjanfuUDkw7c5QDLRocY92mrOS65C8El8NV69jT3LFSbS7kqgkKL5FXX0Pi5fy_ZsTCx_4-G-_twTiGSFcEHjwx25ORsZiUzRZvs1C4eHic2e8agnoCB1ni_g9_BE0aQ9HabG7YX61NFL72SOgva9Cy48ihekK5uWZiNTfwCmV52lGG3za8syv0d4QP64X_iZC5ZO8jTlU-ASNjURze2lx2PaWNNbQjoyURPzJ7BV6ZeVjtEE9qE1v6SWaLCVjRKHrMRvnSBo3Ii_Hn_ltZ6G8k5eu4fdNSR0fUecKuiJaPIMLwqHuEsiS_G_Zbe7rKDEYKhxsduB_4F]--></g></svg>