<?xml version="1.0" encoding="us-ascii" standalone="no"?><svg xmlns="http://www.w3.org/2000/svg" xmlns:xlink="http://www.w3.org/1999/xlink" contentStyleType="text/css" height="459.2px" preserveAspectRatio="none" style="width:760px;height:459px;background:#FFFFFF;" version="1.1" viewBox="0 0 760 459" width="760.8px" zoomAndPan="magnify"><defs/><g><text fill="#000000" font-family="sans-serif" font-size="5.6" font-weight="bold" lengthAdjust="spacing" textLength="61.2" x="350.7" y="12.043">Register an employee</text><rect fill="#FFFFFF" height="365.675" style="stroke:#181818;stroke-width:0.4000000000000001;" width="4" x="17.8" y="53.2969"/><rect fill="#FFFFFF" height="110.2633" style="stroke:#181818;stroke-width:0.4000000000000001;" width="4" x="289" y="62.6133"/><rect fill="#FFFFFF" height="123.0477" style="stroke:#181818;stroke-width:0.4000000000000001;" width="4" x="289" y="185.393"/><rect fill="#FFFFFF" height="98.0148" style="stroke:#181818;stroke-width:0.4000000000000001;" width="4" x="289" y="320.957"/><rect fill="#FFFFFF" height="93.7469" style="stroke:#181818;stroke-width:0.4000000000000001;" width="4" x="529.8" y="79.1297"/><rect fill="#FFFFFF" height="98.0148" style="stroke:#181818;stroke-width:0.4000000000000001;" width="4" x="529.8" y="197.9094"/><rect fill="#FFFFFF" height="72.982" style="stroke:#181818;stroke-width:0.4000000000000001;" width="4" x="529.8" y="333.4734"/><rect fill="#FFFFFF" height="30.2328" style="stroke:#181818;stroke-width:0.4000000000000001;" width="4" x="607" y="92.5781"/><rect fill="#FFFFFF" height="30.2328" style="stroke:#181818;stroke-width:0.4000000000000001;" width="4" x="607" y="210.4258"/><rect fill="#FFFFFF" height="12.5164" style="stroke:#181818;stroke-width:0.4000000000000001;" width="4" x="682.2" y="135.3273"/><rect fill="#FFFFFF" height="30.2328" style="stroke:#181818;stroke-width:0.4000000000000001;" width="4" x="682.2" y="253.175"/><rect fill="#FFFFFF" height="47.9492" style="stroke:#181818;stroke-width:0.4000000000000001;" width="4" x="682.2" y="345.9898"/><line style="stroke:#181818;stroke-width:0.20000000000000004;stroke-dasharray:5.0,5.0;" x1="19.6" x2="19.6" y1="49.2969" y2="426.1719"/><line style="stroke:#181818;stroke-width:0.20000000000000004;stroke-dasharray:5.0,5.0;" x1="291" x2="291" y1="49.2969" y2="426.1719"/><line style="stroke:#181818;stroke-width:0.20000000000000004;stroke-dasharray:5.0,5.0;" x1="531.8" x2="531.8" y1="78.5375" y2="426.1719"/><line style="stroke:#181818;stroke-width:0.20000000000000004;stroke-dasharray:5.0,5.0;" x1="608.8" x2="608.8" y1="49.2969" y2="426.1719"/><line style="stroke:#181818;stroke-width:0.20000000000000004;stroke-dasharray:5.0,5.0;" x1="684" x2="684" y1="49.2969" y2="426.1719"/><text fill="#000000" font-family="sans-serif" font-size="5.6" lengthAdjust="spacing" textLength="33.2" x="2" y="47.8914">Administrator</text><ellipse cx="19.8" cy="21.2484" fill="#E3E3E3" rx="3.2" ry="3.2" style="stroke:#181818;stroke-width:0.20000000000000004;"/><path d="M19.8,24.4484 L19.8,35.2484 M14.6,27.6484 L25,27.6484 M19.8,35.2484 L14.6,41.2484 M19.8,35.2484 L25,41.2484 " fill="none" style="stroke:#181818;stroke-width:0.20000000000000004;"/><text fill="#000000" font-family="sans-serif" font-size="5.6" lengthAdjust="spacing" textLength="33.2" x="2" y="431.8148">Administrator</text><ellipse cx="19.8" cy="436.6203" fill="#E3E3E3" rx="3.2" ry="3.2" style="stroke:#181818;stroke-width:0.20000000000000004;"/><path d="M19.8,439.8203 L19.8,450.6203 M14.6,443.0203 L25,443.0203 M19.8,450.6203 L14.6,456.6203 M19.8,450.6203 L25,456.6203 " fill="none" style="stroke:#181818;stroke-width:0.20000000000000004;"/><rect fill="#E3E3E3" height="13.0484" rx="1" ry="1" style="stroke:#181818;stroke-width:0.20000000000000004;" width="67.2" x="257.4" y="35.8484"/><text fill="#000000" font-family="sans-serif" font-size="5.6" lengthAdjust="spacing" textLength="61.6" x="260.2" y="44.6914">:EmployeeRegistrationUI</text><rect fill="#E3E3E3" height="13.0484" rx="1" ry="1" style="stroke:#181818;stroke-width:0.20000000000000004;" width="67.2" x="257.4" y="425.7719"/><text fill="#000000" font-family="sans-serif" font-size="5.6" lengthAdjust="spacing" textLength="61.6" x="260.2" y="434.6148">:EmployeeRegistrationUI</text><rect fill="#E3E3E3" height="13.0484" rx="1" ry="1" style="stroke:#181818;stroke-width:0.20000000000000004;" width="87.2" x="488.2" y="425.7719"/><text fill="#000000" font-family="sans-serif" font-size="5.6" lengthAdjust="spacing" textLength="81.6" x="491" y="434.6148">:EmployeeRegistrationController</text><rect fill="#E3E3E3" height="13.0484" rx="1" ry="1" style="stroke:#181818;stroke-width:0.20000000000000004;" width="37.2" x="590.4" y="35.8484"/><text fill="#000000" font-family="sans-serif" font-size="5.6" lengthAdjust="spacing" textLength="31.6" x="593.2" y="44.6914">Repositories</text><rect fill="#E3E3E3" height="13.0484" rx="1" ry="1" style="stroke:#181818;stroke-width:0.20000000000000004;" width="37.2" x="590.4" y="425.7719"/><text fill="#000000" font-family="sans-serif" font-size="5.6" lengthAdjust="spacing" textLength="31.6" x="593.2" y="434.6148">Repositories</text><rect fill="#E3E3E3" height="13.0484" rx="1" ry="1" style="stroke:#181818;stroke-width:0.20000000000000004;" width="100.4" x="634" y="35.8484"/><text fill="#000000" font-family="sans-serif" font-size="5.6" lengthAdjust="spacing" textLength="94.8" x="636.8" y="44.6914">employeeRepo : EmployeeRepository</text><rect fill="#E3E3E3" height="13.0484" rx="1" ry="1" style="stroke:#181818;stroke-width:0.20000000000000004;" width="100.4" x="634" y="425.7719"/><text fill="#000000" font-family="sans-serif" font-size="5.6" lengthAdjust="spacing" textLength="94.8" x="636.8" y="434.6148">employeeRepo : EmployeeRepository</text><rect fill="#FFFFFF" height="365.675" style="stroke:#181818;stroke-width:0.4000000000000001;" width="4" x="17.8" y="53.2969"/><rect fill="#FFFFFF" height="110.2633" style="stroke:#181818;stroke-width:0.4000000000000001;" width="4" x="289" y="62.6133"/><rect fill="#FFFFFF" height="123.0477" style="stroke:#181818;stroke-width:0.4000000000000001;" width="4" x="289" y="185.393"/><rect fill="#FFFFFF" height="98.0148" style="stroke:#181818;stroke-width:0.4000000000000001;" width="4" x="289" y="320.957"/><rect fill="#FFFFFF" height="93.7469" style="stroke:#181818;stroke-width:0.4000000000000001;" width="4" x="529.8" y="79.1297"/><rect fill="#FFFFFF" height="98.0148" style="stroke:#181818;stroke-width:0.4000000000000001;" width="4" x="529.8" y="197.9094"/><rect fill="#FFFFFF" height="72.982" style="stroke:#181818;stroke-width:0.4000000000000001;" width="4" x="529.8" y="333.4734"/><rect fill="#FFFFFF" height="30.2328" style="stroke:#181818;stroke-width:0.4000000000000001;" width="4" x="607" y="92.5781"/><rect fill="#FFFFFF" height="30.2328" style="stroke:#181818;stroke-width:0.4000000000000001;" width="4" x="607" y="210.4258"/><rect fill="#FFFFFF" height="12.5164" style="stroke:#181818;stroke-width:0.4000000000000001;" width="4" x="682.2" y="135.3273"/><rect fill="#FFFFFF" height="30.2328" style="stroke:#181818;stroke-width:0.4000000000000001;" width="4" x="682.2" y="253.175"/><rect fill="#FFFFFF" height="47.9492" style="stroke:#181818;stroke-width:0.4000000000000001;" width="4" x="682.2" y="345.9898"/><polygon fill="#181818" points="284.2,61.0133,288.2,62.6133,284.2,64.2133,285.8,62.6133" style="stroke:#181818;stroke-width:0.4000000000000001;"/><line style="stroke:#181818;stroke-width:0.4000000000000001;" x1="21.8" x2="286.6" y1="62.6133" y2="62.6133"/><text fill="#000000" font-family="sans-serif" font-size="5.2" font-weight="bold" lengthAdjust="spacing" textLength="2.8" x="24.6" y="60.5082">1</text><text fill="#000000" font-family="sans-serif" font-size="5.2" lengthAdjust="spacing" textLength="60.4" x="29" y="60.5082">starts registration process</text><polygon fill="#181818" points="483.4,73.5297,487.4,75.1297,483.4,76.7297,485,75.1297" style="stroke:#181818;stroke-width:0.4000000000000001;"/><line style="stroke:#181818;stroke-width:0.4000000000000001;" x1="293" x2="485.8" y1="75.1297" y2="75.1297"/><text fill="#000000" font-family="sans-serif" font-size="5.2" font-weight="bold" lengthAdjust="spacing" textLength="2.8" x="295.8" y="73.0246">2</text><text fill="#000000" font-family="sans-serif" font-size="5.2" lengthAdjust="spacing" textLength="46" x="300.2" y="73.0246">initiateRegistration()</text><rect fill="#E3E3E3" height="13.0484" rx="1" ry="1" style="stroke:#181818;stroke-width:0.20000000000000004;" width="87.2" x="488.2" y="65.8133"/><text fill="#000000" font-family="sans-serif" font-size="5.6" lengthAdjust="spacing" textLength="81.6" x="491" y="74.6563">:EmployeeRegistrationController</text><polygon fill="#181818" points="602.2,90.9781,606.2,92.5781,602.2,94.1781,603.8,92.5781" style="stroke:#181818;stroke-width:0.4000000000000001;"/><line style="stroke:#181818;stroke-width:0.4000000000000001;" x1="533.8" x2="604.6" y1="92.5781" y2="92.5781"/><text fill="#000000" font-family="sans-serif" font-size="5.2" font-weight="bold" lengthAdjust="spacing" textLength="2.8" x="536.6" y="90.473">3</text><text fill="#000000" font-family="sans-serif" font-size="5.2" lengthAdjust="spacing" textLength="58.4" x="541" y="90.473">getEmployeeRepository()</text><line style="stroke:#181818;stroke-width:0.4000000000000001;" x1="611" x2="627.8" y1="105.0945" y2="105.0945"/><line style="stroke:#181818;stroke-width:0.4000000000000001;" x1="627.8" x2="627.8" y1="105.0945" y2="110.2945"/><line style="stroke:#181818;stroke-width:0.4000000000000001;" x1="611.4" x2="627.8" y1="110.2945" y2="110.2945"/><polygon fill="#181818" points="615.4,108.6945,611.4,110.2945,615.4,111.8945,613.8,110.2945" style="stroke:#181818;stroke-width:0.4000000000000001;"/><text fill="#000000" font-family="sans-serif" font-size="5.2" font-weight="bold" lengthAdjust="spacing" textLength="2.8" x="613.8" y="102.9895">4</text><text fill="#000000" font-family="sans-serif" font-size="5.2" lengthAdjust="spacing" textLength="50.4" x="618.2" y="102.9895">employeeRepository()</text><polygon fill="#181818" points="538.2,121.2109,534.2,122.8109,538.2,124.4109,536.6,122.8109" style="stroke:#181818;stroke-width:0.4000000000000001;"/><line style="stroke:#181818;stroke-width:0.4000000000000001;stroke-dasharray:2.0,2.0;" x1="535.8" x2="608.6" y1="122.8109" y2="122.8109"/><text fill="#000000" font-family="sans-serif" font-size="5.2" font-weight="bold" lengthAdjust="spacing" textLength="2.8" x="540.6" y="120.7059">5</text><text fill="#000000" font-family="sans-serif" font-size="5.2" lengthAdjust="spacing" textLength="34.4" x="545" y="120.7059">employeeRepo</text><polygon fill="#181818" points="677.4,133.7273,681.4,135.3273,677.4,136.9273,679,135.3273" style="stroke:#181818;stroke-width:0.4000000000000001;"/><line style="stroke:#181818;stroke-width:0.4000000000000001;" x1="533.8" x2="679.8" y1="135.3273" y2="135.3273"/><text fill="#000000" font-family="sans-serif" font-size="5.2" font-weight="bold" lengthAdjust="spacing" textLength="2.8" x="536.6" y="133.2223">6</text><text fill="#000000" font-family="sans-serif" font-size="5.2" lengthAdjust="spacing" textLength="46" x="541" y="133.2223">initiateRegistration()</text><polygon fill="#181818" points="538.2,146.2438,534.2,147.8438,538.2,149.4438,536.6,147.8438" style="stroke:#181818;stroke-width:0.4000000000000001;"/><line style="stroke:#181818;stroke-width:0.4000000000000001;" x1="535.8" x2="683.8" y1="147.8438" y2="147.8438"/><text fill="#000000" font-family="sans-serif" font-size="5.2" font-weight="bold" lengthAdjust="spacing" textLength="2.8" x="540.6" y="145.7387">7</text><text fill="#000000" font-family="sans-serif" font-size="5.2" lengthAdjust="spacing" textLength="25.6" x="545" y="145.7387">employee()</text><polygon fill="#181818" points="297.4,158.7602,293.4,160.3602,297.4,161.9602,295.8,160.3602" style="stroke:#181818;stroke-width:0.4000000000000001;"/><line style="stroke:#181818;stroke-width:0.4000000000000001;stroke-dasharray:2.0,2.0;" x1="295" x2="529.4" y1="160.3602" y2="160.3602"/><text fill="#000000" font-family="sans-serif" font-size="5.2" font-weight="bold" lengthAdjust="spacing" textLength="2.8" x="299.8" y="158.2551">8</text><text fill="#000000" font-family="sans-serif" font-size="5.2" lengthAdjust="spacing" textLength="22.4" x="304.2" y="158.2551">employee</text><polygon fill="#181818" points="26.2,171.2766,22.2,172.8766,26.2,174.4766,24.6,172.8766" style="stroke:#181818;stroke-width:0.4000000000000001;"/><line style="stroke:#181818;stroke-width:0.4000000000000001;stroke-dasharray:2.0,2.0;" x1="23.8" x2="290.6" y1="172.8766" y2="172.8766"/><text fill="#000000" font-family="sans-serif" font-size="5.2" font-weight="bold" lengthAdjust="spacing" textLength="2.8" x="28.6" y="170.7715">9</text><text fill="#000000" font-family="sans-serif" font-size="5.2" lengthAdjust="spacing" textLength="47.6" x="33" y="170.7715">shows available data</text><polygon fill="#181818" points="284.2,183.793,288.2,185.393,284.2,186.993,285.8,185.393" style="stroke:#181818;stroke-width:0.4000000000000001;"/><line style="stroke:#181818;stroke-width:0.4000000000000001;" x1="21.8" x2="286.6" y1="185.393" y2="185.393"/><text fill="#000000" font-family="sans-serif" font-size="5.2" font-weight="bold" lengthAdjust="spacing" textLength="5.6" x="24.6" y="183.2879">10</text><text fill="#000000" font-family="sans-serif" font-size="5.2" lengthAdjust="spacing" textLength="252.4" x="31.8" y="183.2879">fills requested data (full name, contactInfo, address, birthdate, employee role, docs, emergency contacts info)</text><polygon fill="#181818" points="525,196.3094,529,197.9094,525,199.5094,526.6,197.9094" style="stroke:#181818;stroke-width:0.4000000000000001;"/><line style="stroke:#181818;stroke-width:0.4000000000000001;" x1="293" x2="527.4" y1="197.9094" y2="197.9094"/><text fill="#000000" font-family="sans-serif" font-size="5.2" font-weight="bold" lengthAdjust="spacing" textLength="5.6" x="295.8" y="195.8043">11</text><text fill="#000000" font-family="sans-serif" font-size="5.2" lengthAdjust="spacing" textLength="222" x="303" y="195.8043">createRegistration(fullName, contactInfo, address, birthdate, role, docs, emergencyContactsInfo)</text><polygon fill="#181818" points="602.2,208.8258,606.2,210.4258,602.2,212.0258,603.8,210.4258" style="stroke:#181818;stroke-width:0.4000000000000001;"/><line style="stroke:#181818;stroke-width:0.4000000000000001;" x1="533.8" x2="604.6" y1="210.4258" y2="210.4258"/><text fill="#000000" font-family="sans-serif" font-size="5.2" font-weight="bold" lengthAdjust="spacing" textLength="5.6" x="536.6" y="208.3207">12</text><text fill="#000000" font-family="sans-serif" font-size="5.2" lengthAdjust="spacing" textLength="58.4" x="543.8" y="208.3207">getEmployeeRepository()</text><line style="stroke:#181818;stroke-width:0.4000000000000001;" x1="611" x2="627.8" y1="222.9422" y2="222.9422"/><line style="stroke:#181818;stroke-width:0.4000000000000001;" x1="627.8" x2="627.8" y1="222.9422" y2="228.1422"/><line style="stroke:#181818;stroke-width:0.4000000000000001;" x1="611.4" x2="627.8" y1="228.1422" y2="228.1422"/><polygon fill="#181818" points="615.4,226.5422,611.4,228.1422,615.4,229.7422,613.8,228.1422" style="stroke:#181818;stroke-width:0.4000000000000001;"/><text fill="#000000" font-family="sans-serif" font-size="5.2" font-weight="bold" lengthAdjust="spacing" textLength="5.6" x="613.8" y="220.8371">13</text><text fill="#000000" font-family="sans-serif" font-size="5.2" lengthAdjust="spacing" textLength="58.4" x="621" y="220.8371">getEmployeeRepository()</text><polygon fill="#181818" points="538.2,239.0586,534.2,240.6586,538.2,242.2586,536.6,240.6586" style="stroke:#181818;stroke-width:0.4000000000000001;"/><line style="stroke:#181818;stroke-width:0.4000000000000001;stroke-dasharray:2.0,2.0;" x1="535.8" x2="608.6" y1="240.6586" y2="240.6586"/><text fill="#000000" font-family="sans-serif" font-size="5.2" font-weight="bold" lengthAdjust="spacing" textLength="5.6" x="540.6" y="238.5535">14</text><text fill="#000000" font-family="sans-serif" font-size="5.2" lengthAdjust="spacing" textLength="34.4" x="547.8" y="238.5535">employeeRepo</text><polygon fill="#181818" points="677.4,251.575,681.4,253.175,677.4,254.775,679,253.175" style="stroke:#181818;stroke-width:0.4000000000000001;"/><line style="stroke:#181818;stroke-width:0.4000000000000001;" x1="533.8" x2="679.8" y1="253.175" y2="253.175"/><text fill="#000000" font-family="sans-serif" font-size="5.2" font-weight="bold" lengthAdjust="spacing" textLength="5.6" x="536.6" y="251.0699">15</text><text fill="#000000" font-family="sans-serif" font-size="5.2" lengthAdjust="spacing" textLength="66" x="543.8" y="251.0699">getNewEmployee(employee)</text><line style="stroke:#181818;stroke-width:0.4000000000000001;" x1="686.2" x2="703" y1="265.6914" y2="265.6914"/><line style="stroke:#181818;stroke-width:0.4000000000000001;" x1="703" x2="703" y1="265.6914" y2="270.8914"/><line style="stroke:#181818;stroke-width:0.4000000000000001;" x1="686.6" x2="703" y1="270.8914" y2="270.8914"/><polygon fill="#181818" points="690.6,269.2914,686.6,270.8914,690.6,272.4914,689,270.8914" style="stroke:#181818;stroke-width:0.4000000000000001;"/><text fill="#000000" font-family="sans-serif" font-size="5.2" font-weight="bold" lengthAdjust="spacing" textLength="5.6" x="689" y="263.5863">16</text><text fill="#000000" font-family="sans-serif" font-size="5.2" lengthAdjust="spacing" textLength="45.2" x="696.2" y="263.5863">createRegistration()</text><polygon fill="#181818" points="538.2,281.8078,534.2,283.4078,538.2,285.0078,536.6,283.4078" style="stroke:#181818;stroke-width:0.4000000000000001;"/><line style="stroke:#181818;stroke-width:0.4000000000000001;stroke-dasharray:2.0,2.0;" x1="535.8" x2="683.8" y1="283.4078" y2="283.4078"/><text fill="#000000" font-family="sans-serif" font-size="5.2" font-weight="bold" lengthAdjust="spacing" textLength="5.6" x="540.6" y="281.3027">17</text><text fill="#000000" font-family="sans-serif" font-size="5.2" lengthAdjust="spacing" textLength="42" x="547.8" y="281.3027">registrationRecord</text><polygon fill="#181818" points="297.4,294.3242,293.4,295.9242,297.4,297.5242,295.8,295.9242" style="stroke:#181818;stroke-width:0.4000000000000001;"/><line style="stroke:#181818;stroke-width:0.4000000000000001;stroke-dasharray:2.0,2.0;" x1="295" x2="531.4" y1="295.9242" y2="295.9242"/><text fill="#000000" font-family="sans-serif" font-size="5.2" font-weight="bold" lengthAdjust="spacing" textLength="5.6" x="299.8" y="293.8191">18</text><text fill="#000000" font-family="sans-serif" font-size="5.2" lengthAdjust="spacing" textLength="42" x="307" y="293.8191">registrationRecord</text><polygon fill="#181818" points="26.2,306.8406,22.2,308.4406,26.2,310.0406,24.6,308.4406" style="stroke:#181818;stroke-width:0.4000000000000001;"/><line style="stroke:#181818;stroke-width:0.4000000000000001;stroke-dasharray:2.0,2.0;" x1="23.8" x2="290.6" y1="308.4406" y2="308.4406"/><text fill="#000000" font-family="sans-serif" font-size="5.2" font-weight="bold" lengthAdjust="spacing" textLength="5.6" x="28.6" y="306.3355">19</text><text fill="#000000" font-family="sans-serif" font-size="5.2" lengthAdjust="spacing" textLength="79.6" x="35.8" y="306.3355">validates and asks for confirmation</text><polygon fill="#181818" points="284.2,319.357,288.2,320.957,284.2,322.557,285.8,320.957" style="stroke:#181818;stroke-width:0.4000000000000001;"/><line style="stroke:#181818;stroke-width:0.4000000000000001;" x1="21.8" x2="286.6" y1="320.957" y2="320.957"/><text fill="#000000" font-family="sans-serif" font-size="5.2" font-weight="bold" lengthAdjust="spacing" textLength="5.6" x="24.6" y="318.852">20</text><text fill="#000000" font-family="sans-serif" font-size="5.2" lengthAdjust="spacing" textLength="19.6" x="31.8" y="318.852">confirms</text><polygon fill="#181818" points="525,331.8734,529,333.4734,525,335.0734,526.6,333.4734" style="stroke:#181818;stroke-width:0.4000000000000001;"/><line style="stroke:#181818;stroke-width:0.4000000000000001;" x1="293" x2="527.4" y1="333.4734" y2="333.4734"/><text fill="#000000" font-family="sans-serif" font-size="5.2" font-weight="bold" lengthAdjust="spacing" textLength="5.6" x="295.8" y="331.3684">21</text><text fill="#000000" font-family="sans-serif" font-size="5.2" lengthAdjust="spacing" textLength="13.6" x="303" y="331.3684">save()</text><polygon fill="#181818" points="677.4,344.3898,681.4,345.9898,677.4,347.5898,679,345.9898" style="stroke:#181818;stroke-width:0.4000000000000001;"/><line style="stroke:#181818;stroke-width:0.4000000000000001;" x1="533.8" x2="679.8" y1="345.9898" y2="345.9898"/><text fill="#000000" font-family="sans-serif" font-size="5.2" font-weight="bold" lengthAdjust="spacing" textLength="5.6" x="536.6" y="343.8848">22</text><text fill="#000000" font-family="sans-serif" font-size="5.2" lengthAdjust="spacing" textLength="36" x="543.8" y="343.8848">save(employee)</text><line style="stroke:#181818;stroke-width:0.4000000000000001;" x1="686.2" x2="703" y1="358.5063" y2="358.5063"/><line style="stroke:#181818;stroke-width:0.4000000000000001;" x1="703" x2="703" y1="358.5063" y2="363.7063"/><line style="stroke:#181818;stroke-width:0.4000000000000001;" x1="686.6" x2="703" y1="363.7063" y2="363.7063"/><polygon fill="#181818" points="690.6,362.1063,686.6,363.7063,690.6,365.3063,689,363.7063" style="stroke:#181818;stroke-width:0.4000000000000001;"/><text fill="#000000" font-family="sans-serif" font-size="5.2" font-weight="bold" lengthAdjust="spacing" textLength="5.6" x="689" y="356.4012">23</text><text fill="#000000" font-family="sans-serif" font-size="5.2" lengthAdjust="spacing" textLength="62" x="696.2" y="356.4012">globalValidation(employee)</text><line style="stroke:#181818;stroke-width:0.4000000000000001;" x1="686.2" x2="703" y1="376.2227" y2="376.2227"/><line style="stroke:#181818;stroke-width:0.4000000000000001;" x1="703" x2="703" y1="376.2227" y2="381.4227"/><line style="stroke:#181818;stroke-width:0.4000000000000001;" x1="686.6" x2="703" y1="381.4227" y2="381.4227"/><polygon fill="#181818" points="690.6,379.8227,686.6,381.4227,690.6,383.0227,689,381.4227" style="stroke:#181818;stroke-width:0.4000000000000001;"/><text fill="#000000" font-family="sans-serif" font-size="5.2" font-weight="bold" lengthAdjust="spacing" textLength="5.6" x="689" y="374.1176">24</text><text fill="#000000" font-family="sans-serif" font-size="5.2" lengthAdjust="spacing" textLength="34" x="696.2" y="374.1176">add(employee)</text><polygon fill="#181818" points="538.2,392.3391,534.2,393.9391,538.2,395.5391,536.6,393.9391" style="stroke:#181818;stroke-width:0.4000000000000001;"/><line style="stroke:#181818;stroke-width:0.4000000000000001;stroke-dasharray:2.0,2.0;" x1="535.8" x2="683.8" y1="393.9391" y2="393.9391"/><text fill="#000000" font-family="sans-serif" font-size="5.2" font-weight="bold" lengthAdjust="spacing" textLength="5.6" x="540.6" y="391.834">25</text><text fill="#000000" font-family="sans-serif" font-size="5.2" lengthAdjust="spacing" textLength="19.6" x="547.8" y="391.834">success</text><polygon fill="#181818" points="297.4,404.8555,293.4,406.4555,297.4,408.0555,295.8,406.4555" style="stroke:#181818;stroke-width:0.4000000000000001;"/><line style="stroke:#181818;stroke-width:0.4000000000000001;stroke-dasharray:2.0,2.0;" x1="295" x2="531.4" y1="406.4555" y2="406.4555"/><text fill="#000000" font-family="sans-serif" font-size="5.2" font-weight="bold" lengthAdjust="spacing" textLength="5.6" x="299.8" y="404.3504">26</text><text fill="#000000" font-family="sans-serif" font-size="5.2" lengthAdjust="spacing" textLength="19.6" x="307" y="404.3504">success</text><polygon fill="#181818" points="24.2,417.3719,20.2,418.9719,24.2,420.5719,22.6,418.9719" style="stroke:#181818;stroke-width:0.4000000000000001;"/><line style="stroke:#181818;stroke-width:0.4000000000000001;stroke-dasharray:2.0,2.0;" x1="21.8" x2="290.6" y1="418.9719" y2="418.9719"/><text fill="#000000" font-family="sans-serif" font-size="5.2" font-weight="bold" lengthAdjust="spacing" textLength="5.6" x="26.6" y="416.8668">27</text><text fill="#000000" font-family="sans-serif" font-size="5.2" lengthAdjust="spacing" textLength="148" x="33.8" y="416.8668">records the information and notifies the success of the operation</text><!--SRC=[pLR1ZjiW4BtxAqPxIbR93-nXfMgrXrpsaAgz4posKJ2uW1FbxpiGsmjst3ZLLYgd03Dlti1xEFOeLCCCgw7MIlFAw1h1cHOpE-mqZ1zPYT_THI8Ov8wfKiO1jcAvFWjLGi6anInpmb7e7ajX7HfW2h1kfBuWxR7MQTNM1pJqcpjju5jU2qMHXj4i8qWdk6YOSl3qyjxbNR4eGcZrO_S4p48h5iI-QUMCbX9DoE7Eo2HhZussWkeAj2aS3cYDXXTuZwOXuH80uwWiD2HEpE6efmne94kmVQK62DSwAchfM3yvGsCqHsj3re18xK8tA97IVI_FpmH1g4vGIDptQZr43mYXUOY6N_18yI4GNebkscq4c80c1mYZaG1F2-6zAcECxVOrS4vJavGSxrFh-nvTyPrpJDgUhUz7WjlTLCHvX1andaMzCkurCvWf3l6Ye81KPQIlIfyji1CJaXt8b3bpBBjHUX17j4QI-uDo2o6b5-wl5idbUK26LT5A2OhLk05EtYEidIhq1bYU6zBq1Wx2k8fYAQ3l0yYXDCqrjtuHJOcAN_fyInTJwFK2Dn0fRd1yWvxHnp92DtcyTJHs0ul_srLB2arXfZBzIciHfmyyzxHM_UvNc6jKwOO0rdSmFbkFN-4zSctoXvqwTUjoq8cKPZnzOb9umPAlLKvVeQE5WZP8teKmTIZqc9MxJBlCOvQTyA7lo-YAGlu_b40fzO79dzT3yWAuNMi14hqHYvEZysdvyFd- -qT-Z3AdancDcA0q2wx2y7vskWYAKTg9mhlURtPrG1TXgXiqSmgAPkd_czy0]--></g></svg>