<?xml version="1.0" encoding="us-ascii" standalone="no"?><svg xmlns="http://www.w3.org/2000/svg" xmlns:xlink="http://www.w3.org/1999/xlink" contentStyleType="text/css" height="1013.6px" preserveAspectRatio="none" style="width:1539px;height:1013px;background:#FFFFFF;" version="1.1" viewBox="0 0 1539 1013" width="1539.2px" zoomAndPan="magnify"><defs/><g><text fill="#000000" font-family="sans-serif" font-size="11.2" font-weight="bold" lengthAdjust="spacing" textLength="114.4" x="714.2" y="24.0859">Create Vaccine Type</text><rect fill="#FFFFFF" height="826.7125" style="stroke:#181818;stroke-width:0.8000000000000002;" width="8" x="35.6" y="106.5938"/><rect fill="#FFFFFF" height="280.9922" style="stroke:#181818;stroke-width:0.8000000000000002;" width="8" x="531.6" y="125.2266"/><rect fill="#FFFFFF" height="280.9922" style="stroke:#181818;stroke-width:0.8000000000000002;" width="8" x="531.6" y="431.2516"/><rect fill="#FFFFFF" height="196.0297" style="stroke:#181818;stroke-width:0.8000000000000002;" width="8" x="531.6" y="737.2766"/><rect fill="#FFFFFF" height="221.0625" style="stroke:#181818;stroke-width:0.8000000000000002;" width="8" x="871.6" y="185.1563"/><rect fill="#FFFFFF" height="230.9266" style="stroke:#181818;stroke-width:0.8000000000000002;" width="8" x="871.6" y="456.2844"/><rect fill="#FFFFFF" height="145.9641" style="stroke:#181818;stroke-width:0.8000000000000002;" width="8" x="871.6" y="762.3094"/><rect fill="#FFFFFF" height="60.4656" style="stroke:#181818;stroke-width:0.8000000000000002;" width="8" x="1064.4" y="210.1891"/><rect fill="#FFFFFF" height="60.4656" style="stroke:#181818;stroke-width:0.8000000000000002;" width="8" x="1064.4" y="481.3172"/><rect fill="#FFFFFF" height="60.4656" style="stroke:#181818;stroke-width:0.8000000000000002;" width="8" x="1253.2" y="295.6875"/><rect fill="#FFFFFF" height="95.3625" style="stroke:#181818;stroke-width:0.8000000000000002;" width="8" x="1253.2" y="566.8156"/><rect fill="#FFFFFF" height="95.8984" style="stroke:#181818;stroke-width:0.8000000000000002;" width="8" x="1253.2" y="787.3422"/><rect fill="#FFFFFF" height="62.3297" style="stroke:#181818;stroke-width:0.8000000000000002;" width="8" x="1414.8" y="599.8484"/><line style="stroke:#181818;stroke-width:0.4000000000000001;stroke-dasharray:5.0,5.0;" x1="39.2" x2="39.2" y1="98.5938" y2="947.7063"/><line style="stroke:#181818;stroke-width:0.4000000000000001;stroke-dasharray:5.0,5.0;" x1="535.2" x2="535.2" y1="98.5938" y2="947.7063"/><line style="stroke:#181818;stroke-width:0.4000000000000001;stroke-dasharray:5.0,5.0;" x1="875.2" x2="875.2" y1="157.075" y2="947.7063"/><line style="stroke:#181818;stroke-width:0.4000000000000001;stroke-dasharray:5.0,5.0;" x1="1068" x2="1068" y1="98.5938" y2="947.7063"/><line style="stroke:#181818;stroke-width:0.4000000000000001;stroke-dasharray:5.0,5.0;" x1="1256.8" x2="1256.8" y1="98.5938" y2="947.7063"/><line style="stroke:#181818;stroke-width:0.4000000000000001;stroke-dasharray:5.0,5.0;" x1="1418.4" x2="1418.4" y1="598.6641" y2="947.7063"/><text fill="#000000" font-family="sans-serif" font-size="11.2" lengthAdjust="spacing" textLength="66.4" x="4" y="95.7828">Administrator</text><ellipse cx="39.6" cy="42.4969" fill="#E3E3E3" rx="6.4" ry="6.4" style="stroke:#181818;stroke-width:0.4000000000000001;"/><path d="M39.6,48.8969 L39.6,70.4969 M29.2,55.2969 L50,55.2969 M39.6,70.4969 L29.2,82.4969 M39.6,70.4969 L50,82.4969 " fill="none" style="stroke:#181818;stroke-width:0.4000000000000001;"/><text fill="#000000" font-family="sans-serif" font-size="11.2" lengthAdjust="spacing" textLength="66.4" x="4" y="958.9922">Administrator</text><ellipse cx="39.6" cy="968.6031" fill="#E3E3E3" rx="6.4" ry="6.4" style="stroke:#181818;stroke-width:0.4000000000000001;"/><path d="M39.6,975.0031 L39.6,996.6031 M29.2,981.4031 L50,981.4031 M39.6,996.6031 L29.2,1008.6031 M39.6,996.6031 L50,1008.6031 " fill="none" style="stroke:#181818;stroke-width:0.4000000000000001;"/><rect fill="#E3E3E3" height="26.0969" rx="2" ry="2" style="stroke:#181818;stroke-width:0.4000000000000001;" width="159.2" x="456" y="71.6969"/><text fill="#000000" font-family="sans-serif" font-size="11.2" lengthAdjust="spacing" textLength="148" x="461.6" y="89.3828">:RegisterVaccinationCenterUI</text><rect fill="#E3E3E3" height="26.0969" rx="2" ry="2" style="stroke:#181818;stroke-width:0.4000000000000001;" width="159.2" x="456" y="946.9063"/><text fill="#000000" font-family="sans-serif" font-size="11.2" lengthAdjust="spacing" textLength="148" x="461.6" y="964.5922">:RegisterVaccinationCenterUI</text><rect fill="#E3E3E3" height="26.0969" rx="2" ry="2" style="stroke:#181818;stroke-width:0.4000000000000001;" width="199.2" x="776" y="946.9063"/><text fill="#000000" font-family="sans-serif" font-size="11.2" lengthAdjust="spacing" textLength="188" x="781.6" y="964.5922">:RegisterVaccinationCenterController</text><rect fill="#E3E3E3" height="26.0969" rx="2" ry="2" style="stroke:#181818;stroke-width:0.4000000000000001;" width="74.4" x="1031.2" y="71.6969"/><text fill="#000000" font-family="sans-serif" font-size="11.2" lengthAdjust="spacing" textLength="63.2" x="1036.8" y="89.3828">Repositories</text><rect fill="#E3E3E3" height="26.0969" rx="2" ry="2" style="stroke:#181818;stroke-width:0.4000000000000001;" width="74.4" x="1031.2" y="946.9063"/><text fill="#000000" font-family="sans-serif" font-size="11.2" lengthAdjust="spacing" textLength="63.2" x="1036.8" y="964.5922">Repositories</text><rect fill="#E3E3E3" height="26.0969" rx="2" ry="2" style="stroke:#181818;stroke-width:0.4000000000000001;" width="192.8" x="1160.8" y="71.6969"/><text fill="#000000" font-family="sans-serif" font-size="11.2" lengthAdjust="spacing" textLength="181.6" x="1166.4" y="89.3828">vacCenter : VaccinationCenterRepo</text><rect fill="#E3E3E3" height="26.0969" rx="2" ry="2" style="stroke:#181818;stroke-width:0.4000000000000001;" width="192.8" x="1160.8" y="946.9063"/><text fill="#000000" font-family="sans-serif" font-size="11.2" lengthAdjust="spacing" textLength="181.6" x="1166.4" y="964.5922">vacCenter : VaccinationCenterRepo</text><rect fill="#E3E3E3" height="26.0969" rx="2" ry="2" style="stroke:#181818;stroke-width:0.4000000000000001;" width="64.8" x="1386.4" y="946.9063"/><text fill="#000000" font-family="sans-serif" font-size="11.2" lengthAdjust="spacing" textLength="53.6" x="1392" y="964.5922">VacCenter</text><rect fill="#FFFFFF" height="826.7125" style="stroke:#181818;stroke-width:0.8000000000000002;" width="8" x="35.6" y="106.5938"/><rect fill="#FFFFFF" height="280.9922" style="stroke:#181818;stroke-width:0.8000000000000002;" width="8" x="531.6" y="125.2266"/><rect fill="#FFFFFF" height="280.9922" style="stroke:#181818;stroke-width:0.8000000000000002;" width="8" x="531.6" y="431.2516"/><rect fill="#FFFFFF" height="196.0297" style="stroke:#181818;stroke-width:0.8000000000000002;" width="8" x="531.6" y="737.2766"/><rect fill="#FFFFFF" height="221.0625" style="stroke:#181818;stroke-width:0.8000000000000002;" width="8" x="871.6" y="185.1563"/><rect fill="#FFFFFF" height="230.9266" style="stroke:#181818;stroke-width:0.8000000000000002;" width="8" x="871.6" y="456.2844"/><rect fill="#FFFFFF" height="145.9641" style="stroke:#181818;stroke-width:0.8000000000000002;" width="8" x="871.6" y="762.3094"/><rect fill="#FFFFFF" height="60.4656" style="stroke:#181818;stroke-width:0.8000000000000002;" width="8" x="1064.4" y="210.1891"/><rect fill="#FFFFFF" height="60.4656" style="stroke:#181818;stroke-width:0.8000000000000002;" width="8" x="1064.4" y="481.3172"/><rect fill="#FFFFFF" height="60.4656" style="stroke:#181818;stroke-width:0.8000000000000002;" width="8" x="1253.2" y="295.6875"/><rect fill="#FFFFFF" height="95.3625" style="stroke:#181818;stroke-width:0.8000000000000002;" width="8" x="1253.2" y="566.8156"/><rect fill="#FFFFFF" height="95.8984" style="stroke:#181818;stroke-width:0.8000000000000002;" width="8" x="1253.2" y="787.3422"/><rect fill="#FFFFFF" height="62.3297" style="stroke:#181818;stroke-width:0.8000000000000002;" width="8" x="1414.8" y="599.8484"/><polygon fill="#181818" points="522,122.0266,530,125.2266,522,128.4266,525.2,125.2266" style="stroke:#181818;stroke-width:0.8000000000000002;"/><line style="stroke:#181818;stroke-width:0.8000000000000002;" x1="43.6" x2="526.8" y1="125.2266" y2="125.2266"/><text fill="#000000" font-family="sans-serif" font-size="10.4" font-weight="bold" lengthAdjust="spacing" textLength="5.6" x="49.2" y="121.0164">1</text><text fill="#000000" font-family="sans-serif" font-size="10.4" lengthAdjust="spacing" textLength="120.8" x="58" y="121.0164">starts registration process</text><polygon fill="#181818" points="766.4,147.0594,774.4,150.2594,766.4,153.4594,769.6,150.2594" style="stroke:#181818;stroke-width:0.8000000000000002;"/><line style="stroke:#181818;stroke-width:0.8000000000000002;" x1="539.6" x2="771.2" y1="150.2594" y2="150.2594"/><text fill="#000000" font-family="sans-serif" font-size="10.4" font-weight="bold" lengthAdjust="spacing" textLength="5.6" x="545.2" y="146.0492">2</text><text fill="#000000" font-family="sans-serif" font-size="10.4" lengthAdjust="spacing" textLength="35.2" x="554" y="146.0492">create()</text><rect fill="#E3E3E3" height="26.0969" rx="2" ry="2" style="stroke:#181818;stroke-width:0.4000000000000001;" width="199.2" x="776" y="131.6266"/><text fill="#000000" font-family="sans-serif" font-size="11.2" lengthAdjust="spacing" textLength="188" x="781.6" y="149.3125">:RegisterVaccinationCenterController</text><polygon fill="#181818" points="862,181.9563,870,185.1563,862,188.3563,865.2,185.1563" style="stroke:#181818;stroke-width:0.8000000000000002;"/><line style="stroke:#181818;stroke-width:0.8000000000000002;" x1="539.6" x2="866.8" y1="185.1563" y2="185.1563"/><text fill="#000000" font-family="sans-serif" font-size="10.4" font-weight="bold" lengthAdjust="spacing" textLength="5.6" x="545.2" y="180.9461">3</text><text fill="#000000" font-family="sans-serif" font-size="10.4" lengthAdjust="spacing" textLength="97.6" x="554" y="180.9461">initiatesRegistration()</text><polygon fill="#181818" points="1054.8,206.9891,1062.8,210.1891,1054.8,213.3891,1058,210.1891" style="stroke:#181818;stroke-width:0.8000000000000002;"/><line style="stroke:#181818;stroke-width:0.8000000000000002;" x1="879.6" x2="1059.6" y1="210.1891" y2="210.1891"/><text fill="#000000" font-family="sans-serif" font-size="10.4" font-weight="bold" lengthAdjust="spacing" textLength="5.6" x="885.2" y="205.9789">4</text><text fill="#000000" font-family="sans-serif" font-size="10.4" lengthAdjust="spacing" textLength="155.2" x="894" y="205.9789">getVaccinationCenterRepository()</text><line style="stroke:#181818;stroke-width:0.8000000000000002;" x1="1072.4" x2="1106" y1="235.2219" y2="235.2219"/><line style="stroke:#181818;stroke-width:0.8000000000000002;" x1="1106" x2="1106" y1="235.2219" y2="245.6219"/><line style="stroke:#181818;stroke-width:0.8000000000000002;" x1="1073.2" x2="1106" y1="245.6219" y2="245.6219"/><polygon fill="#181818" points="1081.2,242.4219,1073.2,245.6219,1081.2,248.8219,1078,245.6219" style="stroke:#181818;stroke-width:0.8000000000000002;"/><text fill="#000000" font-family="sans-serif" font-size="10.4" font-weight="bold" lengthAdjust="spacing" textLength="5.6" x="1078" y="231.0117">5</text><text fill="#000000" font-family="sans-serif" font-size="10.4" lengthAdjust="spacing" textLength="155.2" x="1086.8" y="231.0117">getVaccinationCenterRepository()</text><polygon fill="#181818" points="888.4,267.4547,880.4,270.6547,888.4,273.8547,885.2,270.6547" style="stroke:#181818;stroke-width:0.8000000000000002;"/><line style="stroke:#181818;stroke-width:0.8000000000000002;stroke-dasharray:2.0,2.0;" x1="883.6" x2="1067.6" y1="270.6547" y2="270.6547"/><text fill="#000000" font-family="sans-serif" font-size="10.4" font-weight="bold" lengthAdjust="spacing" textLength="5.6" x="893.2" y="266.4445">6</text><text fill="#000000" font-family="sans-serif" font-size="10.4" lengthAdjust="spacing" textLength="69.6" x="902" y="266.4445">vacCenterRepo</text><polygon fill="#181818" points="1243.6,292.4875,1251.6,295.6875,1243.6,298.8875,1246.8,295.6875" style="stroke:#181818;stroke-width:0.8000000000000002;"/><line style="stroke:#181818;stroke-width:0.8000000000000002;" x1="879.6" x2="1248.4" y1="295.6875" y2="295.6875"/><text fill="#000000" font-family="sans-serif" font-size="10.4" font-weight="bold" lengthAdjust="spacing" textLength="5.6" x="885.2" y="291.4773">7</text><text fill="#000000" font-family="sans-serif" font-size="10.4" lengthAdjust="spacing" textLength="105.6" x="894" y="291.4773">getVaccinationCenter()</text><line style="stroke:#181818;stroke-width:0.8000000000000002;" x1="1261.2" x2="1294.8" y1="320.7203" y2="320.7203"/><line style="stroke:#181818;stroke-width:0.8000000000000002;" x1="1294.8" x2="1294.8" y1="320.7203" y2="331.1203"/><line style="stroke:#181818;stroke-width:0.8000000000000002;" x1="1262" x2="1294.8" y1="331.1203" y2="331.1203"/><polygon fill="#181818" points="1270,327.9203,1262,331.1203,1270,334.3203,1266.8,331.1203" style="stroke:#181818;stroke-width:0.8000000000000002;"/><text fill="#000000" font-family="sans-serif" font-size="10.4" font-weight="bold" lengthAdjust="spacing" textLength="5.6" x="1266.8" y="316.5102">8</text><text fill="#000000" font-family="sans-serif" font-size="10.4" lengthAdjust="spacing" textLength="105.6" x="1275.6" y="316.5102">getVaccinationCenter()</text><polygon fill="#181818" points="888.4,352.9531,880.4,356.1531,888.4,359.3531,885.2,356.1531" style="stroke:#181818;stroke-width:0.8000000000000002;"/><line style="stroke:#181818;stroke-width:0.8000000000000002;stroke-dasharray:2.0,2.0;" x1="883.6" x2="1256.4" y1="356.1531" y2="356.1531"/><text fill="#000000" font-family="sans-serif" font-size="10.4" font-weight="bold" lengthAdjust="spacing" textLength="5.6" x="893.2" y="351.943">9</text><text fill="#000000" font-family="sans-serif" font-size="10.4" lengthAdjust="spacing" textLength="98.4" x="902" y="351.943">vaccinationCenterList</text><polygon fill="#181818" points="548.4,377.9859,540.4,381.1859,548.4,384.3859,545.2,381.1859" style="stroke:#181818;stroke-width:0.8000000000000002;"/><line style="stroke:#181818;stroke-width:0.8000000000000002;stroke-dasharray:2.0,2.0;" x1="543.6" x2="870.8" y1="381.1859" y2="381.1859"/><text fill="#000000" font-family="sans-serif" font-size="10.4" font-weight="bold" lengthAdjust="spacing" textLength="11.2" x="553.2" y="376.9758">10</text><text fill="#000000" font-family="sans-serif" font-size="10.4" lengthAdjust="spacing" textLength="98.4" x="567.6" y="376.9758">vaccinationCenterList</text><polygon fill="#181818" points="52.4,403.0188,44.4,406.2188,52.4,409.4188,49.2,406.2188" style="stroke:#181818;stroke-width:0.8000000000000002;"/><line style="stroke:#181818;stroke-width:0.8000000000000002;stroke-dasharray:2.0,2.0;" x1="47.6" x2="534.8" y1="406.2188" y2="406.2188"/><text fill="#000000" font-family="sans-serif" font-size="10.4" font-weight="bold" lengthAdjust="spacing" textLength="11.2" x="57.2" y="402.0086">11</text><text fill="#000000" font-family="sans-serif" font-size="10.4" lengthAdjust="spacing" textLength="180.8" x="71.6" y="402.0086">shows the Vaccination Center available</text><polygon fill="#181818" points="522,428.0516,530,431.2516,522,434.4516,525.2,431.2516" style="stroke:#181818;stroke-width:0.8000000000000002;"/><line style="stroke:#181818;stroke-width:0.8000000000000002;" x1="43.6" x2="526.8" y1="431.2516" y2="431.2516"/><text fill="#000000" font-family="sans-serif" font-size="10.4" font-weight="bold" lengthAdjust="spacing" textLength="11.2" x="49.2" y="427.0414">12</text><text fill="#000000" font-family="sans-serif" font-size="10.4" lengthAdjust="spacing" textLength="458.4" x="63.6" y="427.0414">fills requested data for a new vaccination center (address, contact info, documentation, staff details)</text><polygon fill="#181818" points="862,453.0844,870,456.2844,862,459.4844,865.2,456.2844" style="stroke:#181818;stroke-width:0.8000000000000002;"/><line style="stroke:#181818;stroke-width:0.8000000000000002;" x1="539.6" x2="866.8" y1="456.2844" y2="456.2844"/><text fill="#000000" font-family="sans-serif" font-size="10.4" font-weight="bold" lengthAdjust="spacing" textLength="11.2" x="545.2" y="452.0742">13</text><text fill="#000000" font-family="sans-serif" font-size="10.4" lengthAdjust="spacing" textLength="302.4" x="559.6" y="452.0742">createVacCenter (address, contactInfo, documentation, staffData)</text><polygon fill="#181818" points="1054.8,478.1172,1062.8,481.3172,1054.8,484.5172,1058,481.3172" style="stroke:#181818;stroke-width:0.8000000000000002;"/><line style="stroke:#181818;stroke-width:0.8000000000000002;" x1="879.6" x2="1059.6" y1="481.3172" y2="481.3172"/><text fill="#000000" font-family="sans-serif" font-size="10.4" font-weight="bold" lengthAdjust="spacing" textLength="11.2" x="885.2" y="477.107">14</text><text fill="#000000" font-family="sans-serif" font-size="10.4" lengthAdjust="spacing" textLength="155.2" x="899.6" y="477.107">getVaccinationCenterRepository()</text><line style="stroke:#181818;stroke-width:0.8000000000000002;" x1="1072.4" x2="1106" y1="506.35" y2="506.35"/><line style="stroke:#181818;stroke-width:0.8000000000000002;" x1="1106" x2="1106" y1="506.35" y2="516.75"/><line style="stroke:#181818;stroke-width:0.8000000000000002;" x1="1073.2" x2="1106" y1="516.75" y2="516.75"/><polygon fill="#181818" points="1081.2,513.55,1073.2,516.75,1081.2,519.95,1078,516.75" style="stroke:#181818;stroke-width:0.8000000000000002;"/><text fill="#000000" font-family="sans-serif" font-size="10.4" font-weight="bold" lengthAdjust="spacing" textLength="11.2" x="1078" y="502.1398">15</text><text fill="#000000" font-family="sans-serif" font-size="10.4" lengthAdjust="spacing" textLength="155.2" x="1092.4" y="502.1398">getVaccinationCenterRepository()</text><polygon fill="#181818" points="888.4,538.5828,880.4,541.7828,888.4,544.9828,885.2,541.7828" style="stroke:#181818;stroke-width:0.8000000000000002;"/><line style="stroke:#181818;stroke-width:0.8000000000000002;stroke-dasharray:2.0,2.0;" x1="883.6" x2="1067.6" y1="541.7828" y2="541.7828"/><text fill="#000000" font-family="sans-serif" font-size="10.4" font-weight="bold" lengthAdjust="spacing" textLength="11.2" x="893.2" y="537.5727">16</text><text fill="#000000" font-family="sans-serif" font-size="10.4" lengthAdjust="spacing" textLength="69.6" x="907.6" y="537.5727">vacCenterRepo</text><polygon fill="#181818" points="1243.6,563.6156,1251.6,566.8156,1243.6,570.0156,1246.8,566.8156" style="stroke:#181818;stroke-width:0.8000000000000002;"/><line style="stroke:#181818;stroke-width:0.8000000000000002;" x1="879.6" x2="1248.4" y1="566.8156" y2="566.8156"/><text fill="#000000" font-family="sans-serif" font-size="10.4" font-weight="bold" lengthAdjust="spacing" textLength="11.2" x="885.2" y="562.6055">17</text><text fill="#000000" font-family="sans-serif" font-size="10.4" lengthAdjust="spacing" textLength="299.2" x="899.6" y="562.6055">createVacCenter(address, contactInfo, documentation, staffData)</text><polygon fill="#181818" points="1376.8,588.6484,1384.8,591.8484,1376.8,595.0484,1380,591.8484" style="stroke:#181818;stroke-width:0.8000000000000002;"/><line style="stroke:#181818;stroke-width:0.8000000000000002;" x1="1261.2" x2="1381.6" y1="591.8484" y2="591.8484"/><text fill="#000000" font-family="sans-serif" font-size="10.4" font-weight="bold" lengthAdjust="spacing" textLength="11.2" x="1266.8" y="587.6383">18</text><text fill="#000000" font-family="sans-serif" font-size="10.4" lengthAdjust="spacing" textLength="35.2" x="1281.2" y="587.6383">create()</text><rect fill="#E3E3E3" height="26.0969" rx="2" ry="2" style="stroke:#181818;stroke-width:0.4000000000000001;" width="64.8" x="1386.4" y="573.2156"/><text fill="#000000" font-family="sans-serif" font-size="11.2" lengthAdjust="spacing" textLength="53.6" x="1392" y="590.9016">VacCenter</text><line style="stroke:#181818;stroke-width:0.8000000000000002;" x1="1422.8" x2="1456.4" y1="626.7453" y2="626.7453"/><line style="stroke:#181818;stroke-width:0.8000000000000002;" x1="1456.4" x2="1456.4" y1="626.7453" y2="637.1453"/><line style="stroke:#181818;stroke-width:0.8000000000000002;" x1="1423.6" x2="1456.4" y1="637.1453" y2="637.1453"/><polygon fill="#181818" points="1431.6,633.9453,1423.6,637.1453,1431.6,640.3453,1428.4,637.1453" style="stroke:#181818;stroke-width:0.8000000000000002;"/><text fill="#000000" font-family="sans-serif" font-size="10.4" font-weight="bold" lengthAdjust="spacing" textLength="11.2" x="1428.4" y="622.5352">19</text><text fill="#000000" font-family="sans-serif" font-size="10.4" lengthAdjust="spacing" textLength="91.2" x="1442.8" y="622.5352">getLocalValidation()</text><polygon fill="#181818" points="1266,658.9781,1258,662.1781,1266,665.3781,1262.8,662.1781" style="stroke:#181818;stroke-width:0.8000000000000002;"/><line style="stroke:#181818;stroke-width:0.8000000000000002;stroke-dasharray:2.0,2.0;" x1="1261.2" x2="1418" y1="662.1781" y2="662.1781"/><text fill="#000000" font-family="sans-serif" font-size="10.4" font-weight="bold" lengthAdjust="spacing" textLength="11.2" x="1270.8" y="657.968">20</text><text fill="#000000" font-family="sans-serif" font-size="10.4" lengthAdjust="spacing" textLength="48.8" x="1285.2" y="657.968">VacCenter</text><polygon fill="#181818" points="548.4,684.0109,540.4,687.2109,548.4,690.4109,545.2,687.2109" style="stroke:#181818;stroke-width:0.8000000000000002;"/><line style="stroke:#181818;stroke-width:0.8000000000000002;stroke-dasharray:2.0,2.0;" x1="543.6" x2="874.8" y1="687.2109" y2="687.2109"/><text fill="#000000" font-family="sans-serif" font-size="10.4" font-weight="bold" lengthAdjust="spacing" textLength="11.2" x="553.2" y="683.0008">21</text><text fill="#000000" font-family="sans-serif" font-size="10.4" lengthAdjust="spacing" textLength="48.8" x="567.6" y="683.0008">VacCenter</text><polygon fill="#181818" points="52.4,709.0438,44.4,712.2438,52.4,715.4438,49.2,712.2438" style="stroke:#181818;stroke-width:0.8000000000000002;"/><line style="stroke:#181818;stroke-width:0.8000000000000002;stroke-dasharray:2.0,2.0;" x1="47.6" x2="534.8" y1="712.2438" y2="712.2438"/><text fill="#000000" font-family="sans-serif" font-size="10.4" font-weight="bold" lengthAdjust="spacing" textLength="11.2" x="57.2" y="708.0336">22</text><text fill="#000000" font-family="sans-serif" font-size="10.4" lengthAdjust="spacing" textLength="159.2" x="71.6" y="708.0336">validates and asks for confirmation</text><polygon fill="#181818" points="522,734.0766,530,737.2766,522,740.4766,525.2,737.2766" style="stroke:#181818;stroke-width:0.8000000000000002;"/><line style="stroke:#181818;stroke-width:0.8000000000000002;" x1="43.6" x2="526.8" y1="737.2766" y2="737.2766"/><text fill="#000000" font-family="sans-serif" font-size="10.4" font-weight="bold" lengthAdjust="spacing" textLength="11.2" x="49.2" y="733.0664">23</text><text fill="#000000" font-family="sans-serif" font-size="10.4" lengthAdjust="spacing" textLength="39.2" x="63.6" y="733.0664">confirms</text><polygon fill="#181818" points="862,759.1094,870,762.3094,862,765.5094,865.2,762.3094" style="stroke:#181818;stroke-width:0.8000000000000002;"/><line style="stroke:#181818;stroke-width:0.8000000000000002;" x1="539.6" x2="866.8" y1="762.3094" y2="762.3094"/><text fill="#000000" font-family="sans-serif" font-size="10.4" font-weight="bold" lengthAdjust="spacing" textLength="11.2" x="545.2" y="758.0992">24</text><text fill="#000000" font-family="sans-serif" font-size="10.4" lengthAdjust="spacing" textLength="27.2" x="559.6" y="758.0992">save()</text><polygon fill="#181818" points="1243.6,784.1422,1251.6,787.3422,1243.6,790.5422,1246.8,787.3422" style="stroke:#181818;stroke-width:0.8000000000000002;"/><line style="stroke:#181818;stroke-width:0.8000000000000002;" x1="879.6" x2="1248.4" y1="787.3422" y2="787.3422"/><text fill="#000000" font-family="sans-serif" font-size="10.4" font-weight="bold" lengthAdjust="spacing" textLength="11.2" x="885.2" y="783.132">25</text><text fill="#000000" font-family="sans-serif" font-size="10.4" lengthAdjust="spacing" textLength="76" x="899.6" y="783.132">save(VacCenter)</text><line style="stroke:#181818;stroke-width:0.8000000000000002;" x1="1261.2" x2="1294.8" y1="812.375" y2="812.375"/><line style="stroke:#181818;stroke-width:0.8000000000000002;" x1="1294.8" x2="1294.8" y1="812.375" y2="822.775"/><line style="stroke:#181818;stroke-width:0.8000000000000002;" x1="1262" x2="1294.8" y1="822.775" y2="822.775"/><polygon fill="#181818" points="1270,819.575,1262,822.775,1270,825.975,1266.8,822.775" style="stroke:#181818;stroke-width:0.8000000000000002;"/><text fill="#000000" font-family="sans-serif" font-size="10.4" font-weight="bold" lengthAdjust="spacing" textLength="11.2" x="1266.8" y="808.1648">26</text><text fill="#000000" font-family="sans-serif" font-size="10.4" lengthAdjust="spacing" textLength="128" x="1281.2" y="808.1648">globalValidation(VacCenter)</text><line style="stroke:#181818;stroke-width:0.8000000000000002;" x1="1261.2" x2="1294.8" y1="847.8078" y2="847.8078"/><line style="stroke:#181818;stroke-width:0.8000000000000002;" x1="1294.8" x2="1294.8" y1="847.8078" y2="858.2078"/><line style="stroke:#181818;stroke-width:0.8000000000000002;" x1="1262" x2="1294.8" y1="858.2078" y2="858.2078"/><polygon fill="#181818" points="1270,855.0078,1262,858.2078,1270,861.4078,1266.8,858.2078" style="stroke:#181818;stroke-width:0.8000000000000002;"/><text fill="#000000" font-family="sans-serif" font-size="10.4" font-weight="bold" lengthAdjust="spacing" textLength="11.2" x="1266.8" y="843.5977">27</text><text fill="#000000" font-family="sans-serif" font-size="10.4" lengthAdjust="spacing" textLength="72" x="1281.2" y="843.5977">add(VacCenter)</text><polygon fill="#181818" points="888.4,880.0406,880.4,883.2406,888.4,886.4406,885.2,883.2406" style="stroke:#181818;stroke-width:0.8000000000000002;"/><line style="stroke:#181818;stroke-width:0.8000000000000002;stroke-dasharray:2.0,2.0;" x1="883.6" x2="1256.4" y1="883.2406" y2="883.2406"/><text fill="#000000" font-family="sans-serif" font-size="10.4" font-weight="bold" lengthAdjust="spacing" textLength="11.2" x="893.2" y="879.0305">28</text><text fill="#000000" font-family="sans-serif" font-size="10.4" lengthAdjust="spacing" textLength="39.2" x="907.6" y="879.0305">success</text><polygon fill="#181818" points="548.4,905.0734,540.4,908.2734,548.4,911.4734,545.2,908.2734" style="stroke:#181818;stroke-width:0.8000000000000002;"/><line style="stroke:#181818;stroke-width:0.8000000000000002;stroke-dasharray:2.0,2.0;" x1="543.6" x2="874.8" y1="908.2734" y2="908.2734"/><text fill="#000000" font-family="sans-serif" font-size="10.4" font-weight="bold" lengthAdjust="spacing" textLength="11.2" x="553.2" y="904.0633">29</text><text fill="#000000" font-family="sans-serif" font-size="10.4" lengthAdjust="spacing" textLength="39.2" x="567.6" y="904.0633">success</text><polygon fill="#181818" points="48.4,930.1063,40.4,933.3063,48.4,936.5063,45.2,933.3063" style="stroke:#181818;stroke-width:0.8000000000000002;"/><line style="stroke:#181818;stroke-width:0.8000000000000002;stroke-dasharray:2.0,2.0;" x1="43.6" x2="534.8" y1="933.3063" y2="933.3063"/><text fill="#000000" font-family="sans-serif" font-size="10.4" font-weight="bold" lengthAdjust="spacing" textLength="11.2" x="53.2" y="929.0961">30</text><text fill="#000000" font-family="sans-serif" font-size="10.4" lengthAdjust="spacing" textLength="296" x="67.6" y="929.0961">records the information and notifies the success of the operation</text><!--SRC=[vLPDRwCm4BtdLunwQgla3_HGQPMzLEefkvlxn0p42jYiROZoxtTiABK9j4cZdjOdm3DlFlpU67kGgaQ35LHQQR4tkY9mfg657NPg50Siw9SxbGI6X4DLbB61tMEcZr8La6DfQR5mqh7fsX0wWYqA8HN1xrFDMzWuhPfgHuQVXTC6VcILLD8wW_osO4GdXQnHERXxsb31EsGw37HIgpKf_l3dvGxGGYClTLXhvOmkIpB1KJXJ9guRghMLd84acsAsA3e8U88pMEyM00Sh_oMK9bjVVLhT0dWbds3rp5Kmj7KSr79_YswBGq1jj21hWzU0o3L3lzYHtNqjZuyC8KB3xnyczdcNOph9-tOJXOYCXm2XDn2j0C10SOyOi20tsOzWSegG4_IaqJ1QIOGR8uxnLgldlXFfMSNs6NsUvrit4fIPvEQQC9-1Nodorq9DuBnJeHqxlp8XvXendslNYJS2VmxgwSZMAV-P-NjzjE3s5CiBUirXYxB47S-RYTG6faRVM1uVg2oNPUb5zhSX7XCPPEWGSZP0K7ICQm3H9N2FMMPOX4iGF48u30ifrql8j6WgDWd6Io_VFESy7ATh7ovGxA3NxJ1VpaAzp4RwoNd_Fz8TSVSRn3iwYY-Vn2qg7w9F3_Cp-C7-pCIlTrh5qDr9l6g1vHPBcOqlWHc4YOxDHu_EOThe2yFb76Xg37mmPDgkMkOIgemlx8CDikVZpQMfGXkkcoIzfxrCwXPRkkgk7RSx00nT-APhfTIxX1SpyIu2OmLTuHzrgX73FyyDX1d3N4aN_itL9kjk9J_lUue4yYZjPEwdaj_iuu3EmwkkoSoHANfB_mh_0G00]--></g></svg>