<?xml version="1.0" encoding="us-ascii" standalone="no"?><svg xmlns="http://www.w3.org/2000/svg" xmlns:xlink="http://www.w3.org/1999/xlink" contentStyleType="text/css" height="431px" preserveAspectRatio="none" style="width:504px;height:431px;background:#FFFFFF;" version="1.1" viewBox="0 0 504 431" width="504px" zoomAndPan="magnify"><defs/><g><text fill="#000000" font-family="sans-serif" font-size="14" font-weight="bold" lengthAdjust="spacing" textLength="468" x="17.25" y="30.1074">Consult the users in the waiting room of a Healthcare Facility (SSD)</text><rect fill="#FFFFFF" height="197.0371" style="stroke:#181818;stroke-width:1.0;" width="10" x="21.5" y="133.2422"/><rect fill="#FFFFFF" height="31.291" style="stroke:#181818;stroke-width:1.0;" width="10" x="461.5" y="156.5332"/><rect fill="#FFFFFF" height="31.291" style="stroke:#181818;stroke-width:1.0;" width="10" x="461.5" y="219.1152"/><rect fill="#FFFFFF" height="48.582" style="stroke:#181818;stroke-width:1.0;" width="10" x="461.5" y="281.6973"/><line style="stroke:#181818;stroke-width:0.5;stroke-dasharray:5.0,5.0;" x1="26" x2="26" y1="123.2422" y2="348.2793"/><line style="stroke:#181818;stroke-width:0.5;stroke-dasharray:5.0,5.0;" x1="466.5" x2="466.5" y1="123.2422" y2="348.2793"/><text fill="#000000" font-family="sans-serif" font-size="14" lengthAdjust="spacing" textLength="37" x="5" y="119.7285">Nurse</text><ellipse cx="26.5" cy="53.1211" fill="#E3E3E3" rx="8" ry="8" style="stroke:#181818;stroke-width:0.5;"/><path d="M26.5,61.1211 L26.5,88.1211 M13.5,69.1211 L39.5,69.1211 M26.5,88.1211 L13.5,103.1211 M26.5,88.1211 L39.5,103.1211 " fill="none" style="stroke:#181818;stroke-width:0.5;"/><text fill="#000000" font-family="sans-serif" font-size="14" lengthAdjust="spacing" textLength="37" x="5" y="362.3867">Nurse</text><ellipse cx="26.5" cy="374.4004" fill="#E3E3E3" rx="8" ry="8" style="stroke:#181818;stroke-width:0.5;"/><path d="M26.5,382.4004 L26.5,409.4004 M13.5,390.4004 L39.5,390.4004 M26.5,409.4004 L13.5,424.4004 M26.5,409.4004 L39.5,424.4004 " fill="none" style="stroke:#181818;stroke-width:0.5;"/><rect fill="#E3E3E3" height="32.6211" rx="2.5" ry="2.5" style="stroke:#181818;stroke-width:0.5;" width="64" x="434.5" y="89.6211"/><text fill="#000000" font-family="sans-serif" font-size="14" lengthAdjust="spacing" textLength="50" x="441.5" y="111.7285">:System</text><rect fill="#E3E3E3" height="32.6211" rx="2.5" ry="2.5" style="stroke:#181818;stroke-width:0.5;" width="64" x="434.5" y="347.2793"/><text fill="#000000" font-family="sans-serif" font-size="14" lengthAdjust="spacing" textLength="50" x="441.5" y="369.3867">:System</text><rect fill="#FFFFFF" height="197.0371" style="stroke:#181818;stroke-width:1.0;" width="10" x="21.5" y="133.2422"/><rect fill="#FFFFFF" height="31.291" style="stroke:#181818;stroke-width:1.0;" width="10" x="461.5" y="156.5332"/><rect fill="#FFFFFF" height="31.291" style="stroke:#181818;stroke-width:1.0;" width="10" x="461.5" y="219.1152"/><rect fill="#FFFFFF" height="48.582" style="stroke:#181818;stroke-width:1.0;" width="10" x="461.5" y="281.6973"/><polygon fill="#181818" points="449.5,152.5332,459.5,156.5332,449.5,160.5332,453.5,156.5332" style="stroke:#181818;stroke-width:1.0;"/><line style="stroke:#181818;stroke-width:1.0;" x1="31.5" x2="455.5" y1="156.5332" y2="156.5332"/><text fill="#000000" font-family="sans-serif" font-size="13" font-weight="bold" lengthAdjust="spacing" textLength="7" x="38.5" y="151.2705">1</text><text fill="#000000" font-family="sans-serif" font-size="13" lengthAdjust="spacing" textLength="198" x="49.5" y="151.2705">Checks the SNS users waiting list</text><polygon fill="#181818" points="42.5,183.8242,32.5,187.8242,42.5,191.8242,38.5,187.8242" style="stroke:#181818;stroke-width:1.0;"/><line style="stroke:#181818;stroke-width:1.0;stroke-dasharray:2.0,2.0;" x1="36.5" x2="465.5" y1="187.8242" y2="187.8242"/><text fill="#000000" font-family="sans-serif" font-size="13" font-weight="bold" lengthAdjust="spacing" textLength="7" x="48.5" y="182.5615">2</text><text fill="#000000" font-family="sans-serif" font-size="13" lengthAdjust="spacing" textLength="143" x="59.5" y="182.5615">shows SNS users queue</text><polygon fill="#181818" points="449.5,215.1152,459.5,219.1152,449.5,223.1152,453.5,219.1152" style="stroke:#181818;stroke-width:1.0;"/><line style="stroke:#181818;stroke-width:1.0;" x1="31.5" x2="455.5" y1="219.1152" y2="219.1152"/><text fill="#000000" font-family="sans-serif" font-size="13" font-weight="bold" lengthAdjust="spacing" textLength="7" x="38.5" y="213.8525">3</text><text fill="#000000" font-family="sans-serif" font-size="13" lengthAdjust="spacing" textLength="236" x="49.5" y="213.8525">tries to access an SNS user's health info</text><polygon fill="#181818" points="42.5,246.4063,32.5,250.4063,42.5,254.4063,38.5,250.4063" style="stroke:#181818;stroke-width:1.0;"/><line style="stroke:#181818;stroke-width:1.0;stroke-dasharray:2.0,2.0;" x1="36.5" x2="465.5" y1="250.4063" y2="250.4063"/><text fill="#000000" font-family="sans-serif" font-size="13" font-weight="bold" lengthAdjust="spacing" textLength="7" x="48.5" y="245.1436">4</text><text fill="#000000" font-family="sans-serif" font-size="13" lengthAdjust="spacing" textLength="113" x="59.5" y="245.1436">asks for credentials</text><polygon fill="#181818" points="449.5,277.6973,459.5,281.6973,449.5,285.6973,453.5,281.6973" style="stroke:#181818;stroke-width:1.0;"/><line style="stroke:#181818;stroke-width:1.0;" x1="31.5" x2="455.5" y1="281.6973" y2="281.6973"/><text fill="#000000" font-family="sans-serif" font-size="13" font-weight="bold" lengthAdjust="spacing" textLength="7" x="38.5" y="276.4346">5</text><text fill="#000000" font-family="sans-serif" font-size="13" lengthAdjust="spacing" textLength="106" x="49.5" y="276.4346">inserts credentials</text><polygon fill="#181818" points="37.5,326.2793,27.5,330.2793,37.5,334.2793,33.5,330.2793" style="stroke:#181818;stroke-width:1.0;"/><line style="stroke:#181818;stroke-width:1.0;stroke-dasharray:2.0,2.0;" x1="31.5" x2="465.5" y1="330.2793" y2="330.2793"/><text fill="#000000" font-family="sans-serif" font-size="13" font-weight="bold" lengthAdjust="spacing" textLength="7" x="43.5" y="316.3711">6</text><text fill="#000000" font-family="sans-serif" font-size="13" lengthAdjust="spacing" textLength="395" x="54.5" y="307.7256">Validates and, case it's a nurse, shows the patients info (SNS user).</text><text fill="#000000" font-family="sans-serif" font-size="13" lengthAdjust="spacing" textLength="284" x="58.5" y="325.0166">Shows the vaccine's administrations instructions.</text><!--SRC=[bL8nRiCm3Dpz2Y9B6o390p9qIL5qocAWKnTMfcCYjkIAL8BylhIY6a6B3D54KQVZyKWviXynuW13yC5rCGm46XDLCh-Cw8vue5elFK4af-WF_Ir0Ecp2cVq1Mko5gafP3ReBNbAle1r14ee2xFFbZAmJEeOmG6W1uPsmryvX97X3npth1Pxh-dLPLPWq-3HyKRJOQOYmJz6AM6bbnoDwXSMsleZIi00Kk8OPp2TKAdYmaoDOlnGCR67NaJjALbNlwoBpLr_FeldVJ5MuePn2ipR6A_NMl0XdkU7wJfIknHlwItD7aqOcanIih2CHG3_pFGbqsIgpiWsFQaEnLbjpq4Lgo2lRj1wJnjv4gFmZU4341_RS67Jggrc1GykoMcC8VeAiYeNJI4PKjZAIkxM5A2uiDvzcoOmwcK_iQQ9e1lOsj6Z_RFackRRBBbysTpgzoLmNvGS0]--></g></svg>